<?xml version="1.0" encoding="utf-8"?>
<!-- Generator: Adobe Illustrator 25.4.1, SVG Export Plug-In . SVG Version: 6.00 Build 0)  -->
<svg version="1.1" id="Capa_1" xmlns="http://www.w3.org/2000/svg" xmlns:xlink="http://www.w3.org/1999/xlink" x="0px" y="0px"
	 viewBox="0 0 239 122" style="enable-background:new 0 0 239 122;" xml:space="preserve">
<style type="text/css">
	.st0{fill:#FFFFFF;}
</style>
<g>
	<path class="st0" d="M116.8,81.4v-40c0,0-19-13-52-10l-36,34C28.8,65.4,88.9,59.2,116.8,81.4z"/>
	<path class="st0" d="M112.4,84.5c-16.8-13-42.1-16.3-84.3-13.7V73C76.7,73,91.4,73.8,112.4,84.5z"/>
	<path class="st0" d="M28.4,76.9v11c22.2-2.5,56.5-2.9,82.3-2C84.3,75.1,61.3,75.8,28.4,76.9z"/>
	<path class="st0" d="M119.4,82.9V41.5c0,0,16.1-23.6,47.3-24.2L199.2,53C180.3,47,146.6,62.6,119.4,82.9z"/>
	<path class="st0" d="M128.1,81.9c0,0,37.1-29.5,66.2-25.5c8.5,1.2,10.7,7.1,10.7,7.1s-13.1-1.7-20.8-0.6
		C168.6,65.1,153.1,69.3,128.1,81.9z"/>
	<path class="st0" d="M207.4,71.9c0,0-42-4.8-74.6,7.2c0,0,24.7-14.4,60.9-13.7C203,65.6,206.9,68.8,207.4,71.9z"/>
	<path class="st0" d="M208.3,76v11c0,0-60.4-3.6-76.2-1.7C154.9,76.1,178.3,74.5,208.3,76z"/>
	<path class="st0" d="M25.2,86.6l-9.7,12.8l93.5-4.9c0,0,3,3.3,10,3.3s10.9-4.3,10.9-4.3l93.6,6.2l-10-15.4l-1.3,8.4l-84.3-4.6
		c0,0-3.3,3.8-8.9,3.8s-9.5-3.3-9.5-3.3l-84.1,2.5L25.2,86.6z"/>
</g>
</svg>
