<?xml version="1.0" encoding="utf-8"?>
<!-- Generator: Adobe Illustrator 25.4.1, SVG Export Plug-In . SVG Version: 6.00 Build 0)  -->
<svg version="1.1" id="Capa_1" xmlns="http://www.w3.org/2000/svg" xmlns:xlink="http://www.w3.org/1999/xlink" x="0px" y="0px"
	 viewBox="0 0 512 512" style="enable-background:new 0 0 512 512;" xml:space="preserve">
<style type="text/css">
	.st0{fill:#014DA5;}
</style>
<path class="st0" d="M433.8,408.5L329.1,303.8c18.9-24.2,30.1-54.7,30.1-87.7C359.2,137.2,295,73,216.1,73S73,137.2,73,216.1
	s64.2,143.1,143.1,143.1c33,0,63.5-11.2,87.7-30.1l104.7,104.7c3.5,3.5,8.1,5.2,12.6,5.2s9.2-1.7,12.6-5.2
	C440.7,426.8,440.7,415.5,433.8,408.5z M108.8,216.1c0-59.2,48.1-107.3,107.3-107.3s107.3,48.1,107.3,107.3c0,28.8-11.4,55-30,74.3
	c-0.5,0.4-1.1,0.9-1.6,1.4s-1,1-1.4,1.6c-19.3,18.6-45.5,30-74.3,30C156.9,323.4,108.8,275.3,108.8,216.1z"/>
</svg>
