<?xml version="1.0" encoding="utf-8"?>
<!-- Generator: Adobe Illustrator 25.4.1, SVG Export Plug-In . SVG Version: 6.00 Build 0)  -->
<svg version="1.1" id="Capa_1" xmlns="http://www.w3.org/2000/svg" xmlns:xlink="http://www.w3.org/1999/xlink" x="0px" y="0px"
	 viewBox="0 0 512 512" style="enable-background:new 0 0 512 512;" xml:space="preserve">
<style type="text/css">
	.st0{fill:#48559D;}
</style>
<path class="st0" d="M313.4,226.1c27.4-18.5,45.5-49.8,45.5-85.3c0-56.7-46.1-102.9-102.9-102.9c-56.7,0-102.9,46.1-102.9,102.9
	c0,35.5,18.1,66.8,45.5,85.3c-56.7,26.1-100.8,87.6-100.8,151.8c0,35.4,18.6,62.5,53.7,78.5c25.9,11.7,61,17.7,104.5,17.7
	s78.6-5.9,104.5-17.7c35.2-16,53.7-43.1,53.7-78.5C414.2,313.7,370.1,252.2,313.4,226.1z M183.8,140.8c0-39.8,32.4-72.2,72.2-72.2
	c39.8,0,72.2,32.4,72.2,72.2c0,39.8-32.4,72.2-72.2,72.2C216.2,213,183.8,180.6,183.8,140.8z M342.8,430.5V337
	c0-8.5-6.9-15.3-15.3-15.3c-8.5,0-15.3,6.9-15.3,15.3v102c-18.1,3.3-37.7,4.4-56.1,4.4c-18.4,0-38-1.1-56.1-4.4V337
	c0-8.5-6.9-15.3-15.3-15.3c-8.5,0-15.3,6.9-15.3,15.3v93.4c-24-9.7-40.8-25.9-40.8-52.5c0-67.8,63.2-134.3,127.5-134.3
	c64.4,0,127.5,66.5,127.5,134.3C383.5,404.5,366.7,420.8,342.8,430.5z"/>
</svg>
