<?xml version="1.0" encoding="utf-8"?>
<!-- Generator: Adobe Illustrator 25.4.1, SVG Export Plug-In . SVG Version: 6.00 Build 0)  -->
<svg version="1.1" id="Capa_1" xmlns="http://www.w3.org/2000/svg" xmlns:xlink="http://www.w3.org/1999/xlink" x="0px" y="0px"
	 viewBox="0 0 672 512" style="enable-background:new 0 0 672 512;" xml:space="preserve">
<style type="text/css">
	.st0{fill:#071252;}
</style>
<path class="st0" d="M254.5,317.6L254.5,317.6H332l0,0l0,0h72.3c5.6,0,10.5-3.8,11.9-9.2l41.8-160c1-3.7,0.2-7.6-2.2-10.6
	c-2.3-3-5.9-4.8-9.7-4.8h-299l-7.4-30.1c-4.5-18.2-20.7-31-39.4-31H53.6c-6.8,0-12.3,5.5-12.3,12.3s5.5,12.3,12.3,12.3h46.6
	c7.4,0,13.8,5,15.6,12.3l57.6,235.4c0.7,3,1.8,5.8,3.2,8.4c-13.6,7.8-22.8,22.5-22.8,39.3c0,25,20.3,45.3,45.3,45.3
	s45.3-20.3,45.3-45.3c0-7.4-1.8-14.4-5-20.6h104.4c-3.2,6.2-5,13.2-5,20.6c0,25,20.3,45.3,45.3,45.3s45.3-20.3,45.3-45.3
	s-20.3-45.3-45.3-45.3c-1,0-2.1,0-3.1,0.1H208c-5.1,0-9.5-3.5-10.7-8.4l-5-20.7L254.5,317.6L254.5,317.6z M325.6,237.6l-4.9,55.5
	h-55l-4.9-55.5H325.6z M258.8,213.1l-4.9-55.5h78.7l-4.9,55.5H258.8z M394.9,293.1h-49.5l4.9-55.5h59.1L394.9,293.1z M415.8,213.1
	h-63.4l4.9-55.5h73L415.8,213.1z M229.3,157.5l4.9,55.5h-67.5l-13.6-55.5H229.3z M199.1,412.6c-11.4,0-20.8-9.3-20.8-20.8
	c0-11.4,9.3-20.8,20.8-20.8c11.4,0,20.8,9.3,20.8,20.8C219.9,403.3,210.6,412.6,199.1,412.6z M404.9,391.8
	c0,11.4-9.3,20.8-20.8,20.8c-11.4,0-20.8-9.3-20.8-20.8c0-10.7,8.1-19.5,18.6-20.6h2.2c0.4,0,0.8,0,1.2-0.1
	C396.2,371.8,404.9,380.8,404.9,391.8z M172.6,237.6h63.6l4.9,55.5h-54.9L172.6,237.6z"/>
</svg>
