<?xml version="1.0" encoding="utf-8"?>
<!-- Generator: Adobe Illustrator 25.4.1, SVG Export Plug-In . SVG Version: 6.00 Build 0)  -->
<svg version="1.1" id="Capa_1" xmlns="http://www.w3.org/2000/svg" xmlns:xlink="http://www.w3.org/1999/xlink" x="0px" y="0px"
	 viewBox="0 0 50 50" style="enable-background:new 0 0 50 50;" xml:space="preserve">
<style type="text/css">
	.st0{fill:#FFFFFF;}
</style>
<path class="st0" d="M25.44,30.92L25.44,30.92h7.27l0,0l0,0h6.79c0.53,0,0.99-0.36,1.12-0.86l3.92-15.02
	c0.09-0.35,0.02-0.71-0.21-0.99c-0.22-0.28-0.55-0.45-0.91-0.45H15.35l-0.69-2.83c-0.42-1.71-1.94-2.91-3.7-2.91H6.58
	c-0.64,0-1.15,0.52-1.15,1.15s0.52,1.15,1.15,1.15h4.37c0.69,0,1.3,0.47,1.46,1.15l5.41,22.1c0.07,0.28,0.17,0.54,0.3,0.79
	c-1.28,0.73-2.14,2.11-2.14,3.69c0,2.35,1.91,4.25,4.25,4.25s4.25-1.91,4.25-4.25c0-0.69-0.17-1.35-0.47-1.93h9.8
	c-0.3,0.58-0.47,1.24-0.47,1.93c0,2.35,1.91,4.25,4.25,4.25s4.25-1.91,4.25-4.25c0-2.35-1.91-4.25-4.25-4.25
	c-0.09,0-0.2,0-0.29,0.01H21.07c-0.48,0-0.89-0.33-1-0.79l-0.47-1.94L25.44,30.92L25.44,30.92z M32.11,23.41l-0.46,5.21h-5.16
	l-0.46-5.21H32.11z M25.84,21.11l-0.46-5.21h7.39l-0.46,5.21H25.84z M38.61,28.62h-4.65l0.46-5.21h5.55L38.61,28.62z M40.58,21.11
	h-5.95l0.46-5.21h6.85L40.58,21.11z M23.07,15.89l0.46,5.21h-6.34l-1.28-5.21H23.07z M20.24,39.84c-1.07,0-1.95-0.87-1.95-1.95
	c0-1.07,0.87-1.95,1.95-1.95c1.07,0,1.95,0.87,1.95,1.95C22.19,38.96,21.31,39.84,20.24,39.84z M39.55,37.88
	c0,1.07-0.87,1.95-1.95,1.95c-1.07,0-1.95-0.87-1.95-1.95c0-1,0.76-1.83,1.75-1.93h0.21c0.04,0,0.08,0,0.11-0.01
	C38.74,36.01,39.55,36.85,39.55,37.88z M17.75,23.41h5.97l0.46,5.21h-5.15L17.75,23.41z"/>
</svg>
