<?xml version="1.0" encoding="utf-8"?>
<!-- Generator: Adobe Illustrator 25.4.1, SVG Export Plug-In . SVG Version: 6.00 Build 0)  -->
<svg version="1.1" id="Capa_2" xmlns="http://www.w3.org/2000/svg" xmlns:xlink="http://www.w3.org/1999/xlink" x="0px" y="0px"
	 viewBox="0 0 50 50" style="enable-background:new 0 0 50 50;" xml:space="preserve">
<style type="text/css">
	.st0{fill:#FFFFFF;}
</style>
<g>
	<g>
		<path class="st0" d="M25,25.32c-5.41,0-9.81-4.4-9.81-9.81c0-5.41,4.4-9.81,9.81-9.81c5.41,0,9.81,4.4,9.81,9.81
			C34.81,20.92,30.41,25.32,25,25.32z M25,9.52c-3.3,0-5.99,2.69-5.99,5.99S21.7,21.5,25,21.5s5.99-2.69,5.99-5.99
			S28.3,9.52,25,9.52z"/>
	</g>
	<g>
		<path class="st0" d="M42.15,44.3h-3.82V40c0-3.73-3.04-6.77-6.77-6.77H18.44c-3.73,0-6.77,3.04-6.77,6.77v4.3H7.85V40
			c0-5.84,4.75-10.59,10.59-10.59h13.13c5.84,0,10.59,4.75,10.59,10.59V44.3z"/>
	</g>
</g>
</svg>
