<?xml version="1.0" encoding="utf-8"?>
<!-- Generator: Adobe Illustrator 25.4.1, SVG Export Plug-In . SVG Version: 6.00 Build 0)  -->
<svg version="1.1" id="Capa_1" xmlns="http://www.w3.org/2000/svg" xmlns:xlink="http://www.w3.org/1999/xlink" x="0px" y="0px"
	 viewBox="0 0 550 550" style="enable-background:new 0 0 550 550;" xml:space="preserve">
<style type="text/css">
	.st0{fill:#FFFFFF;}
</style>
<g>
	<path class="st0" d="M124,260h240c8.3,0,15-6.7,15-15s-6.7-15-15-15H124c-8.3,0-15,6.7-15,15S115.7,260,124,260z"/>
	<path class="st0" d="M124,320h120c8.3,0,15-6.7,15-15s-6.7-15-15-15H124c-8.3,0-15,6.7-15,15S115.7,320,124,320z"/>
	<path class="st0" d="M124,380h150c8.3,0,15-6.7,15-15s-6.7-15-15-15H124c-8.3,0-15,6.7-15,15S115.7,380,124,380z"/>
	<path class="st0" d="M364,290h-60c-8.3,0-15,6.7-15,15s6.7,15,15,15h60c8.3,0,15-6.7,15-15S372.3,290,364,290z"/>
	<path class="st0" d="M516,108.9h-47V96c0-8.3-6.7-15-15-15h-75v-2c0-33.1-26.9-60-60-60s-60,26.9-60,60v2H34c-8.3,0-15,6.7-15,15
		v360c0,8.3,6.7,15,15,15h47v45c0,8.3,6.7,15,15,15h420c8.3,0,15-6.7,15-15V123.9C531,115.6,524.3,108.9,516,108.9z M289,79
		c0-16.5,13.5-30,30-30s30,13.5,30,30v2c-14.5,0-45,0-60,0V79z M289,111h30v44c0,8.3-6.7,15-15,15s-15-6.7-15-15V111z M49,111h210
		v44c0,24.8,20.2,45,45,45s45-20.2,45-45v-44h90v239H334c-8.3,0-15,6.7-15,15v76H49V111z M409.4,380L349,425.8V380H409.4z M501,501
		H111v-30c16.6,0,223.1,0,223,0c9,0,2.8,0.4,129.1-94c4-3,6.1-7.7,5.9-12.5c0-0.1,0-0.3,0-0.4V138.9h32L501,501L501,501z"/>
</g>
</svg>
