<?xml version="1.0" encoding="utf-8"?>
<!-- Generator: Adobe Illustrator 25.4.1, SVG Export Plug-In . SVG Version: 6.00 Build 0)  -->
<svg version="1.1" id="Capa_1" xmlns="http://www.w3.org/2000/svg" xmlns:xlink="http://www.w3.org/1999/xlink" x="0px" y="0px"
	 viewBox="0 0 550 550" style="enable-background:new 0 0 550 550;" xml:space="preserve">
<style type="text/css">
	.st0{fill:#FFFFFF;}
</style>
<g>
	<path class="st0" d="M456,258.5h-7.9c29.5-3.8,52.4-29,52.4-59.5c0-33.1-26.9-60-60-60s-60,26.9-60,60c0,30.5,22.9,55.7,52.4,59.5
		H425c-16.9,0-32.5,5.6-45,15v0c0-41.4-33.6-75-75-75h-17.8c35.6-5.8,62.8-36.8,62.8-74c0-41.4-33.6-75-75-75s-75,33.6-75,75
		c0,37.2,27.3,68.2,62.8,74H245c-41.4,0-75,33.6-75,75v0c-12.5-9.4-28.1-15-45-15h-7.9c29.5-3.8,52.4-29,52.4-59.5
		c0-33.1-26.9-60-60-60s-60,26.9-60,60c0,30.5,22.9,55.7,52.4,59.5H94c-41.4,0-75,33.6-75,75v152c0,8.3,6.7,15,15,15h482
		c8.3,0,15-6.7,15-15v-152C531,292.1,497.4,258.5,456,258.5z M410.5,199c0-16.5,13.5-30,30-30s30,13.5,30,30s-13.5,30-30,30
		S410.5,215.5,410.5,199z M230,124.5c0-24.8,20.2-45,45-45s45,20.2,45,45s-20.2,45-45,45S230,149.3,230,124.5z M79.5,199
		c0-16.5,13.5-30,30-30s30,13.5,30,30s-13.5,30-30,30S79.5,215.5,79.5,199z M287.9,313.8L275,327.6l-12.9-13.8L275,275L287.9,313.8z
		 M49,333.5c0-24.8,20.2-45,45-45h1v76c0,8.3,6.7,15,15,15s15-6.7,15-15v-76c24.8,0,45,20.2,45,45v137H49V333.5z M200,333.5v-60
		c0-24.8,20.2-45,45-45h13.9l-28.1,84.2c-1.7,5.2-0.5,11,3.3,15l30,32c5.9,6.3,16,6.3,21.9,0l30-32c3.8-4,5-9.8,3.3-15l-28.1-84.2
		H305c24.8,0,45,20.2,45,45v60v137H200L200,333.5z M501,470.5H380v-137c0-24.8,20.2-45,45-45v76c0,8.3,6.7,15,15,15s15-6.7,15-15
		v-76h1c24.8,0,45,20.2,45,45V470.5z"/>
</g>
</svg>
