<?xml version="1.0" encoding="utf-8"?>
<!-- Generator: Adobe Illustrator 25.4.1, SVG Export Plug-In . SVG Version: 6.00 Build 0)  -->
<svg version="1.1" id="Capa_1" xmlns="http://www.w3.org/2000/svg" xmlns:xlink="http://www.w3.org/1999/xlink" x="0px" y="0px"
	 viewBox="0 0 550 550" style="enable-background:new 0 0 550 550;" xml:space="preserve">
<style type="text/css">
	.st0{fill:#FFFFFF;}
</style>
<g>
	<path class="st0" d="M516,19H34c-8.3,0-15,6.7-15,15v362c0,8.3,6.7,15,15,15h166v18.2c0,14.8-12,26.8-26.8,26.8H155
		c-8.3,0-15,6.7-15,15v45c0,8.3,6.7,15,15,15h240c8.3,0,15-6.7,15-15v-45c0-8.3-6.7-15-15-15h-18.2c-14.8,0-26.8-12-26.8-26.8V411
		h166c8.3,0,15-6.7,15-15V34C531,25.7,524.3,19,516,19z M501,49v241H49V49H501z M376.8,486h3.2v15H170v-15h3.2
		c31.3,0,56.8-25.5,56.8-56.8V411h90v18.2C320,460.5,345.5,486,376.8,486z M49,381v-61h452v61C486.3,381,70.8,381,49,381z"/>
</g>
<g>
	<path class="st0" d="M275,100.7c-35.3-28.9-88.9-3.8-88.9,42.1c0,46,53.6,71,88.9,42.1c35.2,28.9,88.9,3.9,88.9-42.1
		C363.9,96.7,310.1,71.8,275,100.7z M240.5,183.6c-22.5,0-40.8-18.3-40.8-40.8S218,102,240.5,102s40.8,18.3,40.8,40.8
		S263,183.6,240.5,183.6z M284.4,175c2.6-3.5,4.7-7.2,6.4-11.3c10.3,8.3,24.6,8.2,34.8-0.6c2.9-2.4,3.2-6.7,0.7-9.6
		c-2.4-2.9-6.7-3.2-9.6-0.7c-5.3,4.5-12.4,4.5-17.7,0c-1.3-1.1-3-1.7-4.6-1.6v-0.1c0.8-4.9,0.9-10,0.2-15.2c3.3-0.5,5.9-3.3,5.9-6.7
		c0-4.8-4.8-8.1-9.2-6.3c-1.7-4.4-4-8.5-6.8-12.2c26.5-20.7,65.9-1.9,65.9,32.2C350.3,176.9,310.9,195.6,284.4,175z"/>
	<circle class="st0" cx="324.9" cy="129.2" r="6.8"/>
	<circle class="st0" cx="224.7" cy="129.2" r="6.8"/>
	<ellipse transform="matrix(0.1602 -0.9871 0.9871 0.1602 87.4616 361.1988)" class="st0" cx="256" cy="129.2" rx="6.8" ry="6.8"/>
	<path class="st0" d="M249.4,148c-5.3,4.5-12.4,4.5-17.7,0c-2.8-2.4-7.1-2.1-9.6,0.7c-2.4,2.9-2.1,7.1,0.7,9.6
		c10.4,8.9,25.1,8.9,35.4,0c2.9-2.4,3.2-6.7,0.7-9.6C256.5,145.9,252.2,145.6,249.4,148z"/>
	<path class="st0" d="M370.7,60.7H179.3c-11.3,0-20.4,9.2-20.4,20.4v122.5c0,11.3,9.2,20.4,20.4,20.4h117v2
		c0,17.1-10,32.7-25.5,39.9c-3.1,1.4-4.7,5-3.6,8.3s4.4,5.2,7.8,4.6c4-1.8,56.8-2.8,72.2-54.8h23.5c11.3,0,20.4-9.2,20.4-20.4V81.1
		C391.1,69.9,381.9,60.7,370.7,60.7z M377.5,203.6c0,3.8-3.1,6.8-6.8,6.8h-28.8c-3.2,0-6,2.2-6.6,5.3c-4.3,19.5-17.7,35.3-35.6,43
		c13.1-19,9.7-36.9,10.2-41.5c0-3.8-3-6.8-6.8-6.8H179.3c-3.8,0-6.8-3.1-6.8-6.8V81.1c0-3.8,3.1-6.8,6.8-6.8h191.4
		c3.8,0,6.8,3.1,6.8,6.8V203.6z"/>
</g>
</svg>
