<?xml version="1.0" encoding="utf-8"?>
<!-- Generator: Adobe Illustrator 25.4.1, SVG Export Plug-In . SVG Version: 6.00 Build 0)  -->
<svg version="1.1" id="Capa_1" xmlns="http://www.w3.org/2000/svg" xmlns:xlink="http://www.w3.org/1999/xlink" x="0px" y="0px"
	 viewBox="0 0 550 550" style="enable-background:new 0 0 550 550;" xml:space="preserve">
<style type="text/css">
	.st0{fill:#FFFFFF;}
</style>
<g>
	<path class="st0" d="M337,301.5V198.9c7.3-1,13-7.2,13-14.9c0-8.3-6.7-15-15-15H215c-8.3,0-15,6.7-15,15s6.7,15,15,15v103.5
		L111.6,509.3c-5,10,2.3,21.7,13.4,21.7h300c11.1,0,18.3-11.6,13.5-21.6L337,301.5z M243.4,312.7c1-2.1,1.6-4.4,1.6-6.7V199h62v106
		c0,2.3,0.5,4.5,1.5,6.6l33.4,68.4H209.8L243.4,312.7z M149.3,501l45.5-91h161.8l44.4,91H149.3z"/>
	<path class="st0" d="M516,275h-16c-4.7-72.9-44.9-141.9-112.7-181h55.2c6.2,17.7,23.1,30.5,42.9,30.5c25.1,0,45.5-20.4,45.5-45.5
		s-20.4-45.5-45.5-45.5c-19.8,0-36.7,12.8-42.9,30.5H336V34c0-8.3-6.7-15-15-15h-92c-8.3,0-15,6.7-15,15v30H107.4
		c-6.2-17.7-23.1-30.5-42.9-30.5C39.4,33.5,19,53.9,19,79s20.4,45.5,45.5,45.5c19.8,0,36.7-12.8,42.9-30.5h55.2
		C99.2,130.6,54.8,197,50,275H34c-8.3,0-15,6.7-15,15v62c0,8.3,6.7,15,15,15h62c8.3,0,15-6.7,15-15v-62c0-8.3-6.7-15-15-15H80
		c5.8-79.2,58.6-146.7,134-171.3V126c0,8.3,6.7,15,15,15h92c8.3,0,15-6.7,15-15v-22.3c75.4,24.6,128.2,91.9,134,171.3h-16
		c-8.3,0-15,6.7-15,15v62c0,8.3,6.7,15,15,15h62c8.3,0,15-6.7,15-15v-62C531,281.7,524.3,275,516,275z M81,337H49v-32h32V337z
		 M485.5,63.5c8.5,0,15.5,7,15.5,15.5s-7,15.5-15.5,15.5S470,87.5,470,79S477,63.5,485.5,63.5z M64.5,94.5C56,94.5,49,87.5,49,79
		s7-15.5,15.5-15.5S80,70.5,80,79S73,94.5,64.5,94.5z M306,111h-62V49h62V111z M501,337h-32v-32h32V337z"/>
</g>
</svg>
