<?xml version="1.0" encoding="utf-8"?>
<!-- Generator: Adobe Illustrator 25.4.1, SVG Export Plug-In . SVG Version: 6.00 Build 0)  -->
<svg version="1.1" id="Capa_1" xmlns="http://www.w3.org/2000/svg" xmlns:xlink="http://www.w3.org/1999/xlink" x="0px" y="0px"
	 viewBox="0 0 550 550" style="enable-background:new 0 0 550 550;" xml:space="preserve">
<style type="text/css">
	.st0{fill:#FFFFFF;}
</style>
<g>
	<path class="st0" d="M516,19H34c-8.3,0-15,6.7-15,15v331c0,8.3,6.7,15,15,15h166v61h-24.7c-0.1,0-0.3,0-0.4,0
		c-19,0.3-34.4,15.9-34.4,35v40c0,8.3,6.7,15,15,15h239c8.3,0,15-6.7,15-15v-40c0-19.3-15.7-35-35-35H350v-61h166
		c8.3,0,15-6.7,15-15V34C531,25.7,524.3,19,516,19z M379.5,476v25h-209v-25c0-2.8,2.2-5,5-5h199C377.3,471,379.5,473.2,379.5,476z
		 M320,441h-90v-61h30v15c0,8.3,6.7,15,15,15s15-6.7,15-15v-15h30V441z M501,350H49V49h452V350z"/>
	<path class="st0" d="M169.8,253.5h62.2c7.7,37.6,41,66,80.8,66c45.5,0,82.5-37,82.5-82.5c0-40-28.6-73.5-66.5-80.9V94.5
		c0-8.3-6.7-15-15-15h-144c-8.3,0-15,6.7-15,15v144C154.8,246.8,161.5,253.5,169.8,253.5z M365.2,237c0,28.9-23.6,52.5-52.5,52.5
		c-23.2,0-42.9-15.1-49.8-36h50.8c8.3,0,15-6.7,15-15V187C349.9,193.8,365.2,213.6,365.2,237z M262,223.5
		c4.8-17.9,18.9-32.1,36.7-37.1v37.1H262z M184.8,109.5h114v46.2c-34.5,5.9-61.7,33.3-67.4,67.8h-46.6V109.5z"/>
</g>
</svg>
