<?xml version="1.0" encoding="utf-8"?>
<!-- Generator: Adobe Illustrator 25.4.1, SVG Export Plug-In . SVG Version: 6.00 Build 0)  -->
<svg version="1.1" id="Capa_1" xmlns="http://www.w3.org/2000/svg" xmlns:xlink="http://www.w3.org/1999/xlink" x="0px" y="0px"
	 viewBox="0 0 550 550" style="enable-background:new 0 0 550 550;" xml:space="preserve">
<style type="text/css">
	.st0{fill:#FFFFFF;}
</style>
<g>
	<path class="st0" d="M502.5,206.6c0-52.7-41.5-95.9-93.6-98.5c8.8-46.4-27-89.1-73.8-89.1c-24.6,0-46.4,11.9-60.1,30.1
		C261.3,30.9,239.4,19,214.9,19c-46.6,0-82.1,42.2-74,88.1c-84.8,4.5-124.1,107.1-65.3,167.4C16.8,334.8,56,437.5,141,441.9
		c-8.8,46.4,27,89.1,73.8,89.1c24.6,0,46.4-11.9,60.1-30.1c13.7,18.3,35.6,30.1,60.1,30.1c46.6,0,82.1-42.2,74-88.1
		c52-2.8,93.4-45.9,93.4-98.5c0-26.4-10.2-51.4-27.9-69.7C492.5,256.5,502.5,232.6,502.5,206.6L502.5,206.6z M159.5,138.3
		c12.5,2.5,22.2-10.9,16-22.1C158.7,86.3,180.4,49,214.9,49c24.9,0,45.1,20.2,45.1,45.1v32.1c-34.2-8.4-67.5,18.8-65,54.8
		c2.2,32.1,33.1,55.2,65,47.3v31.2h-48.9c-15.3,0-24.3,17.2-15.7,29.8c9.8,14.3,0.4,34.1-17,35.3c-19.2,1.3-30.8-20.1-20.3-35.3
		c8.7-12.6-0.4-29.8-15.7-29.8h-38.9c-16.4-13-26.1-32.8-26.1-53.9C77.5,162.6,116.9,129.9,159.5,138.3L159.5,138.3z M214.9,501
		c-34.9,0-56.6-38.1-38.9-68c6.6-11.1-3.2-24.9-15.9-22.3c-42.8,8.8-82.6-24.1-82.6-67.3c0-21.1,9.7-40.9,26.1-53.9h22.1
		c-8.3,34,18.6,67.5,54.8,65c31.7-2.2,55.3-32.7,47.3-65H260v47.9c0,15.3,17.2,24.3,29.8,15.7c15.6-10.7,36.6,1.4,35.3,20.3
		c-1.2,17.4-21,26.8-35.3,17c-12.6-8.7-29.8,0.4-29.8,15.7v49.9C260,480.8,239.8,501,214.9,501L214.9,501z M390.5,411.7
		c-12.5-2.5-22.2,10.9-16,22.1c16.8,29.9-4.9,67.2-39.4,67.2c-24.9,0-45.1-20.2-45.1-45.1v-33.1c32.3,7.9,62.8-15.7,65-47.3
		c2.5-35.8-30.6-63.2-65-54.8v-31.1h48.9c15.3,0,24.3-17.2,15.7-29.8c-10.4-15.2,1-36.6,20.3-35.3c17.4,1.2,26.8,21,17,35.3
		c-8.7,12.6,0.4,29.8,15.7,29.8h38.9c16.2,12.9,26.1,33.5,26.1,54.9C472.5,387.4,433.1,420.1,390.5,411.7z M446.5,259.5h-22.2
		c7.9-32.3-15.6-62.8-47.3-65c-35.9-2.5-63.2,30.7-54.8,65H290v-47.9c0-15.3-17.2-24.3-29.8-15.7c-14.3,9.8-34.1,0.4-35.3-17
		c-1.3-18.9,19.8-31,35.3-20.3c12.6,8.7,29.8-0.4,29.8-15.7V94.1c0-24.9,20.2-45.1,45.1-45.1c34.9,0,56.6,38.1,38.9,68
		c-6.6,11.2,3.2,24.9,15.9,22.3c42.8-8.8,82.6,24.1,82.6,67.3C472.5,227.4,463.1,246.5,446.5,259.5L446.5,259.5z"/>
</g>
</svg>
