<?xml version="1.0" encoding="utf-8"?>
<!-- Generator: Adobe Illustrator 25.4.1, SVG Export Plug-In . SVG Version: 6.00 Build 0)  -->
<svg version="1.1" id="Capa_1" xmlns="http://www.w3.org/2000/svg" xmlns:xlink="http://www.w3.org/1999/xlink" x="0px" y="0px"
	 viewBox="0 0 550 550" style="enable-background:new 0 0 550 550;" xml:space="preserve">
<style type="text/css">
	.st0{fill:#FFFFFF;}
</style>
<g>
	<path class="st0" d="M516,49H34c-8.3,0-15,6.7-15,15v422c0,8.3,6.7,15,15,15h482c8.3,0,15-6.7,15-15V64C531,55.7,524.3,49,516,49z
		 M49,79h211v392H49V79z M501,471H290V79h211V471z"/>
	<path class="st0" d="M151.1,178.1l42.5-42.5c5.9-5.9,5.9-15.4,0-21.2c-5.9-5.9-15.4-5.9-21.2,0l-31.9,31.9l-5.9-5.9
		c-5.9-5.9-15.4-5.9-21.2,0s-5.9,15.4,0,21.2l16.5,16.5C135.8,184,145.2,184,151.1,178.1L151.1,178.1z"/>
	<path class="st0" d="M362.6,179.1c5.9,5.9,15.4,5.9,21.2,0L395,168l11.1,11.1c5.9,5.9,15.4,5.9,21.2,0c5.9-5.9,5.9-15.4,0-21.2
		l-11.1-11.1l11.1-11.1c5.9-5.9,5.9-15.4,0-21.2c-5.9-5.9-15.4-5.9-21.2,0L395,125.5l-11.1-11.1c-5.9-5.9-15.4-5.9-21.2,0
		s-5.9,15.4,0,21.2l11.1,11.1l-11.1,11.1C356.8,163.8,356.8,173.2,362.6,179.1z"/>
	<path class="st0" d="M140,245c0,8.3,6.7,15,15,15h60c8.3,0,15-6.7,15-15s-6.7-15-15-15h-60C146.7,230,140,236.7,140,245z"/>
	<path class="st0" d="M215,290h-60c-8.3,0-15,6.7-15,15s6.7,15,15,15h60c8.3,0,15-6.7,15-15S223.3,290,215,290z"/>
	<path class="st0" d="M215,350h-60c-8.3,0-15,6.7-15,15s6.7,15,15,15h60c8.3,0,15-6.7,15-15S223.3,350,215,350z"/>
	<path class="st0" d="M215,410h-60c-8.3,0-15,6.7-15,15s6.7,15,15,15h60c8.3,0,15-6.7,15-15S223.3,410,215,410z"/>
	<circle class="st0" cx="95" cy="245" r="15"/>
	<circle class="st0" cx="95" cy="305" r="15"/>
	<circle class="st0" cx="95" cy="365" r="15"/>
	<circle class="st0" cx="95" cy="425" r="15"/>
	<path class="st0" d="M380,245c0,8.3,6.7,15,15,15h60c8.3,0,15-6.7,15-15s-6.7-15-15-15h-60C386.7,230,380,236.7,380,245z"/>
	<path class="st0" d="M455,290h-60c-8.3,0-15,6.7-15,15s6.7,15,15,15h60c8.3,0,15-6.7,15-15S463.3,290,455,290z"/>
	<path class="st0" d="M455,350h-60c-8.3,0-15,6.7-15,15s6.7,15,15,15h60c8.3,0,15-6.7,15-15S463.3,350,455,350z"/>
	<path class="st0" d="M455,410h-60c-8.3,0-15,6.7-15,15s6.7,15,15,15h60c8.3,0,15-6.7,15-15S463.3,410,455,410z"/>
	<circle class="st0" cx="335" cy="245" r="15"/>
	<circle class="st0" cx="335" cy="305" r="15"/>
	<circle class="st0" cx="335" cy="365" r="15"/>
	<circle class="st0" cx="335" cy="425" r="15"/>
</g>
</svg>
