<?xml version="1.0" encoding="utf-8"?>
<!-- Generator: Adobe Illustrator 25.4.1, SVG Export Plug-In . SVG Version: 6.00 Build 0)  -->
<svg version="1.1" id="Capa_1" xmlns="http://www.w3.org/2000/svg" xmlns:xlink="http://www.w3.org/1999/xlink" x="0px" y="0px"
	 viewBox="0 0 550 550" style="enable-background:new 0 0 550 550;" xml:space="preserve">
<style type="text/css">
	.st0{fill:#FFFFFF;}
</style>
<g>
	<path class="st0" d="M275,122.5c-77.8-63.7-196-8.4-196,92.8c0,101.4,118.3,156.5,196,92.8c77.5,63.7,196,8.6,196-92.8
		C471,113.8,352.5,58.9,275,122.5z M199,305.3c-49.6,0-90-40.4-90-90c0-49.6,40.4-90,90-90c49.6,0,90,40.4,90,90
		C289,265,248.6,305.3,199,305.3z M295.7,286.3c5.6-7.6,10.4-16,14.1-24.8c22.8,18.4,54.2,18,76.6-1.2c6.3-5.4,7-14.9,1.6-21.2
		c-5.4-6.3-14.9-7-21.2-1.6c-11.7,10-27.4,10-39.1,0c-2.9-2.5-6.6-3.7-10.2-3.6c0-0.1,0-0.1,0-0.2c1.7-10.8,1.9-22.1,0.4-33.5
		c7.3-1,13-7.3,13-14.8c0-10.5-10.5-17.8-20.4-14c-3.8-9.7-8.9-18.7-15-27c58.5-45.7,145.3-4.1,145.3,71
		C441,290.6,354.1,332,295.7,286.3z"/>
	<circle class="st0" cx="385" cy="185.3" r="15"/>
	<circle class="st0" cx="164" cy="185.3" r="15"/>
	<circle class="st0" cx="233" cy="185.3" r="15"/>
	<path class="st0" d="M218.5,227c-11.7,10-27.4,10-39.1,0c-6.3-5.4-15.8-4.7-21.2,1.6c-5.4,6.3-4.7,15.8,1.6,21.2
		c22.9,19.7,55.2,19.7,78.2,0c6.3-5.4,7-14.9,1.6-21.2C234.3,222.3,224.8,221.6,218.5,227z"/>
	<path class="st0" d="M486,34.5H64c-24.8,0-45,20.2-45,45v270c0,24.8,20.2,45,45,45h258v4.4c0,37.7-22.1,72.2-56.3,88
		c-6.9,3.2-10.3,11-8,18.2c2.3,7.2,9.7,11.6,17.1,10.1c8.8-3.9,125.2-6.2,159.3-120.7H486c24.8,0,45-20.2,45-45v-270
		C531,54.7,510.8,34.5,486,34.5z M501,349.5c0,8.3-6.7,15-15,15h-63.5c-7,0-13.1,4.9-14.7,11.8c-9.4,43-39,77.9-78.4,94.7
		c28.9-41.8,21.4-81.3,22.6-91.5c0-8.3-6.7-15-15-15H64c-8.3,0-15-6.7-15-15v-270c0-8.3,6.7-15,15-15h422c8.3,0,15,6.7,15,15V349.5z
		"/>
</g>
</svg>
