<?xml version="1.0" encoding="utf-8"?>
<!-- Generator: Adobe Illustrator 24.0.2, SVG Export Plug-In . SVG Version: 6.00 Build 0)  -->
<svg version="1.1" id="Capa_1" xmlns="http://www.w3.org/2000/svg" xmlns:xlink="http://www.w3.org/1999/xlink" x="0px" y="0px"
	 viewBox="0 0 300 200" style="enable-background:new 0 0 300 200;" xml:space="preserve">
<style type="text/css">
	.st0{fill-rule:evenodd;clip-rule:evenodd;fill:#FFFFFF;}
</style>
<g>
	<g>
		<path class="st0" d="M146.1,62h-9.4l0,0v6.9h9.5c1.6,0,3.8-1.3,3.8-3.5C150,63.8,148.3,62,146.1,62z"/>
		<polygon class="st0" points="208.5,73.8 217.7,73.8 213.1,62.3 		"/>
		<polygon class="st0" points="24.8,73.8 34.1,73.8 29.4,62.3 		"/>
		<path class="st0" d="M252.3,49.2V57l-5.2-7.8h-18.9v13.6l-5.9-13.5l-32.9-0.1c-8.8,0-14.1,5-14.1,5v-5H74.2l-3.4,9.9l-3.5-9.9
			H44.6v13.7l-6-13.7H20.5L10,73.7v19.5h13l2.8-6.9h7.4l2.8,6.9h105.5v-6.9l5.6,6.9h28.4v-4.9c0,0,4.8,4.9,12.3,4.9h18.8l2.7-6.9
			h7.5l2.8,6.9h27.7v-7.8l5,7.8h19.1v-44C271.4,49.2,252.3,49.2,252.3,49.2z M39.7,87.6L37.1,81H21.9l-2.6,6.6h-9.2l14.2-32.9H35
			l14.1,32.9H39.7z M91.2,87.5H83V63.3l-8.7,24.3H67l-8.7-24.3v24.3h-8.2v-33h13.1l7.6,21.2l7.4-21.3h13V87.5z M123.7,62h-18.5v5.6
			h18.1v6.9h-18.1v5.8h18.5v7.1H96.8V54.6h26.9C123.7,54.6,123.7,62,123.7,62z M150,87.6l-9.9-11.7h-3.5v11.7h-8.2v-33h18.3
			c6.1,0,11.5,3.8,11.5,10.7c0,5.9-4.6,9.7-9,10.1L160,87.5h-10V87.6z M170,87.5h-8.4V54.6h8.4V87.5z M190,87.5h-1.8
			c-8.8,0-14.1-6.9-14.1-16.3c0-9.6,5.3-16.6,16.3-16.6h9.1v7.8h-9.4c-4.5,0-7.7,3.5-7.7,8.9c0,6.4,3.6,9.1,8.9,9.1h2.2L190,87.5z
			 M223.3,87.6l-2.6-6.6h-15.2l-2.6,6.6h-9.2l14.2-32.9h10.7l14.1,32.9H223.3z M265.7,87.5h-10.1l-13.7-21.2v21.2h-8.2V54.6h10.5
			l13.4,20.7V54.6h8.2v32.9H265.7z"/>
	</g>
	<g>
		<path class="st0" d="M273,119.6c-2.6,0-3.5,1.4-3.5,2.7c0,1.4,1,2.9,3,2.9h7.1c7.2,0,10.3,4.1,10.3,9.4v-22.4l-3.5,7.4
			C286.4,119.6,273,119.6,273,119.6z"/>
		<path class="st0" d="M185.9,119.6h-9.4v6.9h9.5c1.6,0,3.8-1.3,3.8-3.5C189.8,121.4,188.2,119.6,185.9,119.6z"/>
		<path class="st0" d="M152.3,119.7h-9.1v7.6h9.1c2.4,0,4.1-1.6,4.1-3.8C156.4,121.1,154.7,119.7,152.3,119.7z"/>
		<path class="st0" d="M121.1,106.8l-5.2,6.5l-5-6.5H64.4v44h46.3l5.1-6.6l5,6.6h27.9v-10.2h6.3c5.4,0,8-1.7,8-1.7v11.8h18.4v-6.9
			l5.6,6.9h93.5c5.1,0,9.5-3,9.5-3v-13.1c0,5.8-3.5,10.5-10.7,10.5h-16.8V138h15.8c2.4,0,3.5-1.3,3.5-2.8c0-1.4-1.1-2.8-3.5-2.8
			h-6.7c-6.5,0-10.1-3.9-10.1-9.9c0-5.3,3.3-10.4,12.9-10.4H290v-5.4H121.1V106.8z M96.8,119.6H78.3v5.6h18.1v6.9H78.3v5.8h18.5v7.1
			H70v-32.9h26.9L96.8,119.6L96.8,119.6z M133.8,145.2h-10.4l-7.7-10.1l-7.6,10.1H97.9l13.1-16.3l-13.4-16.7H108l8,10.3l8-10.3h10
			l-13.2,16.5L133.8,145.2z M151.8,134.8h-8.7v10.4h-8.4v-32.9h18.2c7.5,0,11.8,4.8,11.8,11.1C164.7,130.9,159.2,134.8,151.8,134.8z
			 M189.9,145.2l-9.9-11.7h-3.5v11.7h-8.2v-32.9h18.3c6.1,0,11.5,3.8,11.5,10.7c0,5.9-4.6,9.7-9,10.1l10.8,12.1H189.9z M228.4,119.6
			h-18.5v5.6h18v6.9h-18v5.8h18.5v7.1h-26.9v-32.9h26.9V119.6z M249.8,145.2h-17.5V138h16.5c2.4,0,3.5-1.3,3.5-2.8
			c0-1.4-1.1-2.8-3.5-2.8h-7.4c-6.5,0-10.1-3.9-10.1-9.9c0-5.3,3.3-10.4,12.9-10.4h16l-3.5,7.4h-13.9c-2.6,0-3.5,1.4-3.5,2.7
			c0,1.4,1,2.9,3,2.9h7.8c7.2,0,10.3,4.1,10.3,9.4C260.5,140.4,257,145.2,249.8,145.2z"/>
	</g>
</g>
</svg>
