<?xml version="1.0" encoding="utf-8"?>
<!-- Generator: Adobe Illustrator 24.0.2, SVG Export Plug-In . SVG Version: 6.00 Build 0)  -->
<svg version="1.1" id="Capa_1" xmlns="http://www.w3.org/2000/svg" xmlns:xlink="http://www.w3.org/1999/xlink" x="0px" y="0px"
	 viewBox="0 0 300 200" style="enable-background:new 0 0 300 200;" xml:space="preserve">
<style type="text/css">
	.st0{fill:#FFFFFF;}
</style>
<g>
	<path class="st0" d="M204.2,66.8c-0.3-23-17.3-33.2-17.3-33.2c-11-8.2-23.7-8.2-23.7-8.2h-24.4c-17.7,0.8-27.9,12.1-27.9,12.1
		C98.6,49.9,99.1,66.9,99.1,66.9c-0.4,16.1,10.6,27.7,10.6,27.7c12.5,13.7,29.1,13.8,29.1,13.8h24c15.4-1.2,24.4-8.9,24.4-8.9
		C205.4,86.4,204.2,66.8,204.2,66.8z M141.2,105c-21.1,0-38.3-17.1-38.3-38.3c0-21.1,17.1-38.3,38.3-38.3
		c21.1,0,38.3,17.1,38.3,38.3S162.4,105,141.2,105z"/>
	<path class="st0" d="M132.6,44.3v45c0,0-15.5-5.3-15.5-23.2C117.1,66,116.8,50.8,132.6,44.3z"/>
	<path class="st0" d="M149.9,44.3v45c0,0,15.5-5.3,15.5-23.2C165.4,66,165.7,50.8,149.9,44.3z"/>
	<path class="st0" d="M49.5,146.3c1.6-0.9,1.2-3.3,1.2-3.3v-21.1c-0.1-2.3-0.8-2.5-0.8-2.5c-0.2-0.7-3.1-0.9-3.1-0.9v-1h13.6
		c16.8,1,16.6,15.3,16.6,15.3c-1,16-16.8,15.3-16.8,15.3H46.7V147C49.1,146.8,49.5,146.3,49.5,146.3z M55.1,119.1V143
		c0,0-0.4,3.3,3.3,3.6c0,0,14,1.6,13.8-14.7c0,0,0.3-8-7.6-11.8C64.5,120,60.9,118.1,55.1,119.1z"/>
	<path class="st0" d="M85.3,119c0-1.2-0.9-2.1-2.1-2.1s-2.1,0.9-2.1,2.1s0.9,2.1,2.1,2.1C84.3,121.1,85.3,120.2,85.3,119z"/>
	<path class="st0" d="M79.1,129.8l4.9-1.7c0,0,1-0.7,1,0.8v16.4c0,0-0.1,1.5,1.3,1.5H88v1.1h-9.3v-1h1.9c0,0,1.1-0.3,1-1.6V133
		c0,0,0-1.8-2.3-2.5L79.1,129.8z"/>
	<path class="st0" d="M89.4,130.1v0.8c0,0,2.7,0.7,2.5,2.4v12.1c0,0,0.1,1.3-1.2,1.3h-1.5v1.1h9.3v-1.1h-1.6c0,0-1.3-0.1-1.3-1.3
		v-13.1c0,0,3.4-2.4,5.7-2.1c0,0,3.1,0,3.5,3.4v11.6c0,0,0,1.4-1.3,1.5h-1.7v1.1h9.4v-1.1h-1.5c0,0-1.4,0.2-1.4-1.4V134
		c0,0,0.3-5.7-4.3-6.1c0,0-3.5-0.8-8.3,3.2v-3.3C95.5,127.9,90,130,89.4,130.1z"/>
	<path class="st0" d="M116.3,143.6c1.7,2.4,4.5,2.4,4.5,2.4c3.2,0,6-3,6-3l0.6,0.7c-4.1,5.6-8.3,4.9-8.3,4.9
		c-9.8-0.2-8.1-11.9-8.1-11.9c1.5-9.1,9-8.8,9-8.8c7.3,0.6,7.2,7.1,7.2,7.1c0.1,1-0.9,1-0.9,1h-11.9
		C114.1,141.2,116.3,143.6,116.3,143.6z M114.6,134.5h7.6c0,0,1.4,0,1.3-1.5c0,0-0.3-3.6-4-3.7C119.5,129.3,115.2,129.4,114.6,134.5
		z"/>
	<path class="st0" d="M129.2,130.5v0.6c0,0,2.3,0.8,2.3,1.7v12.8c0,0-0.1,1.2-1.1,1.1h-2.2v1.1h11.3v-1.1h-3.2c0,0-1.4,0.1-1.3-1.7
		v-10c0,0-0.2-2.6,3-3.4c0,0,0.8-0.3,1.9,0.7c0,0,2.6,1.3,3.3-1.7c0,0,0.2-1.7-1.3-2.3c0,0-2-1-3.9,0.7c0,0-1.1,0.7-3,3.5v-3.9
		c0,0,0-1.1-1-0.4C133.9,128.2,129.6,130.3,129.2,130.5z"/>
	<path class="st0" d="M155.6,133.7h1l-0.3-4.4c0,0-4.3-2.7-8.4-0.7c0,0-3.4,1.4-3.4,5.1c0,0-0.3,3.1,3,5l3.7,1.8
		c0,0,3.2,1.3,2.8,3.9c0,0-0.1,2.9-3.5,2.9c0,0-4.5,0.2-5.5-5.3l-0.9,0.2l0.5,5.1c0,0,3.1,1.6,5.4,1.4c0,0,7.5,0.3,7.5-6.3
		c0,0,0.3-3.3-3.8-5l-4.5-2.1c0,0-2.1-1.2-1.8-3.3c0,0,0.3-2.8,3.8-2.6C151.3,129.3,155.1,129.3,155.6,133.7z"/>
	<path class="st0" d="M196,125.4h1.1l-0.3-6.3c0,0-10.5-5.2-18.7-0.3c0,0-8.5,3.9-8.3,13.6c0,0-0.7,9.1,7.4,14c0,0,7.8,5.1,19,0
		l1-6.4l-1-0.3c0,0-1.2,7.2-8.7,7.6c0,0-5.8,0.3-10.1-5.5c0,0-3.5-4.3-3-10.5c0,0,0-7.8,5.8-11.1c0,0,3.2-2.2,7-1.9
		C187.1,118.2,195,117.7,196,125.4z"/>
	<path class="st0" d="M199.4,116.9v0.6c0,0,2.4,0.2,2.3,2.7v25.3c0,0,0,1.2-1.2,1.3h-1.7v1.2h9.3v-1.2h-1.7c0,0-1.3,0.1-1.3-1.5
		v-30.1c0,0,0.1-1.1-0.7-0.5C204.4,114.7,201.4,116.2,199.4,116.9z"/>
	<path class="st0" d="M208.1,128.9l5.3-0.3c0,0,1-0.3,0.9,0.9v12.2c0,0-0.5,4.6,3.7,4.6c0,0,1.9,0.1,5.4-2.7v-11.9
		c0,0-0.3-1-3.7-1.7v-0.7l6.2-0.6c0,0,1-0.6,1,0.7v16c0,0-0.3,1,1,1h1.9v0.9c0,0-5.5,1-6.4,1.4l-0.1-0.2v-3.3c0,0-4.7,4.1-8,3.5
		c0,0-4.5,0-4.6-5.1v-12c0,0-0.1-1.8-2.6-1.8L208.1,128.9L208.1,128.9z"/>
	<path class="st0" d="M232.4,148.2l-1-0.5c0,0,0.5-2.1,0.7-7.3V120c0,0-0.2-2.2-2.3-2.3v-0.9c0,0,2.1-0.5,5-2c0,0,0.8-0.7,0.8,0.7
		V131c0,0,5.3-5.3,10.6-2c0,0,4,2.2,4.1,8c0,0,0,11-10.4,11.6c0,0-3.8,0.1-6.1-1.6L232.4,148.2z M235.6,132.4v10.3
		c0,0,0.3,4.6,4.5,4.7c0,0,6.2,0.7,6.7-8.4c0,0-0.1-7.7-6.9-8.7C239.8,130.3,238,130,235.6,132.4z"/>
	<path class="st0" d="M46.5,157.4H54v0.9h-1c0,0-1.1,0.1-1.1,1.2v12.6c0,0-0.2,1.2,1,1.2h1v1h-7.4v-0.9h1c0,0,1,0,1-1.2v-12.7
		c0,0-0.2-1.1-1.1-1h-1L46.5,157.4L46.5,157.4z"/>
	<path class="st0" d="M174.8,157.4h7.4v0.9h-1c0,0-1.1,0.1-1.1,1.2v12.6c0,0-0.2,1.2,1,1.2h1v1h-7.4v-0.9h1c0,0,1,0,1-1.2v-12.7
		c0,0-0.2-1.1-1.1-1h-1v-1.1H174.8z"/>
	<path class="st0" d="M54.7,157.4h5l10.6,11.7v-9c0,0,0-1.5-1.4-1.7h-1.2v-1h6.5v1h-0.8c0,0-1.4-0.2-1.6,2v12.2c0,0-0.1,1.6,0.1,2
		h-1.1l-12.1-13.4v10c0,0-0.2,2.1,1.3,2.1h1.3v1h-6.6v-0.9h1c0,0,1.3,0,1.6-2.2v-10.9c0,0-0.2-1.5-1.6-1.9h-1
		C54.7,158.4,54.7,157.4,54.7,157.4z"/>
	<path class="st0" d="M123.5,157.4h5l10.6,11.7v-9c0,0,0-1.5-1.4-1.7h-1.2v-1h6.5v1h-0.8c0,0-1.4-0.2-1.6,2v12.2c0,0-0.1,1.6,0.1,2
		h-1.1l-12.1-13.4v10c0,0-0.2,2.1,1.3,2.1h1.3v1h-6.6v-0.9h1c0,0,1.3,0,1.6-2.2v-10.9c0,0-0.2-1.5-1.6-1.9h-1
		C123.5,158.4,123.5,157.4,123.5,157.4z"/>
	<path class="st0" d="M201.3,157.4h5l10.6,11.7v-9c0,0,0-1.5-1.4-1.7h-1.2v-1h6.5v1H220c0,0-1.4-0.2-1.6,2v12.2c0,0-0.1,1.6,0.1,2
		h-1.1l-12.1-13.4v10c0,0-0.2,2.1,1.3,2.1h1.3v1h-6.6v-0.9h1c0,0,1.3,0,1.6-2.2v-10.9c0,0-0.2-1.5-1.6-1.9h-1V157.4z"/>
	<path class="st0" d="M74.9,156.7c0,0,0,2.5-0.5,4.2h1c0,0-0.1-2.3,1.8-2.1h4.1v12.4c0,0,0.3,1.8-1,2.1h-1.4v0.9H87v-1h-1.1
		c0,0-1.5,0-1.3-2.1v-12.4h3.8c0,0,1.5-0.3,1.7,2.3l0.9-0.3c0,0,0-2,0.3-4c0,0-0.6,0.2-0.7,0c0,0-0.2,0.7-0.9,0.7H76.5
		c0,0-0.7,0-0.9-0.7L74.9,156.7L74.9,156.7z"/>
	<path class="st0" d="M157.7,156.7c0,0,0,2.5-0.5,4.2h1c0,0-0.1-2.3,1.8-2.1h4.1v12.4c0,0,0.3,1.8-1,2.1h-1.4v0.9h8.1v-1h-1.1
		c0,0-1.5,0-1.3-2.1v-12.4h3.8c0,0,1.5-0.3,1.7,2.3l0.9-0.3c0,0,0-2,0.3-4c0,0-0.6,0.2-0.7,0c0,0-0.2,0.7-0.9,0.7h-13.2
		c0,0-0.7,0-0.9-0.7L157.7,156.7L157.7,156.7z"/>
	<path class="st0" d="M91.8,157.4H104c0,0,0,2.4,0.2,3.8l-1,0.3c0,0,0.1-2.9-2.2-2.8h-3.8v6h2.8c0,0,1.5,0.2,1.7-2l0.8-0.1
		c0,0-0.2,4.6,0,5.7l-0.9,0.3c0,0,0.1-2.6-1.6-2.5h-2.9v5.3c0,0-0.3,1.6,1.5,1.6h2.8c0,0,2.8,0.1,3.2-2.8l0.9,0.2c0,0-0.7,3-0.9,3.9
		h-13v-1h1.1c0,0,1,0,1.1-1.3v-12.4c0,0-0.1-1.2-1.1-1.2h-1.1v-1H91.8z"/>
	<path class="st0" d="M106.4,157.4h8.2c0,0,5.3-0.3,5.3,4c0,0,0.5,3.3-3.3,4.6l4.3,6.2c0,0,0.3,1,2.1,1.2v0.9h-4.7l-4.9-7.7H112v5.3
		c0,0,0,1.1,1,1.4h1.4v1h-7.9v-1h1c0,0,1-0.2,1.1-1.2v-12.5c0,0-0.2-1.2-1.1-1.2h-1.1V157.4z M111.9,158.5v7h1.6c0,0,3.2,0,3-3.5
		c0,0,0.3-2.7-2.5-3.5H111.9z"/>
	<g>
		<path class="st0" d="M251.1,158.1h-0.3v1.1h0.3c0,0,0.5,0,0.5-0.6C251.5,158.7,251.5,158.3,251.1,158.1z"/>
		<path class="st0" d="M251.2,157c-1.3,0-2.3,1-2.3,2.3s1,2.3,2.3,2.3s2.3-1,2.3-2.3C253.5,158.1,252.4,157,251.2,157z M252.5,160.7
			h-0.8l-0.8-1.3h-0.2v0.9c0,0,0,0.2,0.2,0.2h0.2v0.2h-1.3v-0.2h0.2c0,0,0.2,0,0.2-0.2v-2c0,0,0-0.2-0.2-0.2h-0.2V158h1.3
			c0,0,0.9,0,0.9,0.7c0,0,0.1,0.5-0.5,0.8l0.7,1C252.2,160.5,252.3,160.7,252.5,160.7L252.5,160.7L252.5,160.7z"/>
	</g>
	<path class="st0" d="M142.6,174.3v-0.9h0.6c0,0,1-0.1,1.6-1.4l4.8-14l1.9-0.9c0,0,0.7-0.5,0.9,0.4l5.2,14.9c0,0,0.3,1.1,1.8,1.1
		v0.9h-7.1v-0.9h0.8c0,0,1.1-0.1,1-1l-1.4-4h-5.3l-1.2,3.7c0,0-0.5,1.1,0.7,1.1h1.1v1L142.6,174.3L142.6,174.3z M148,166.8h4.1
		l-2.1-6.3L148,166.8z"/>
	<path class="st0" d="M220.5,174.3v-0.9h0.6c0,0,1-0.1,1.6-1.4l4.8-14l1.9-0.9c0,0,0.7-0.5,0.9,0.4l5.2,14.9c0,0,0.3,1.1,1.8,1.1
		v0.9h-7.1v-0.9h0.8c0,0,1.1-0.1,1-1l-1.4-4h-5.3l-1.2,3.7c0,0-0.5,1.1,0.7,1.1h1.1v1L220.5,174.3L220.5,174.3z M225.9,166.8h4.1
		l-2.1-6.3L225.9,166.8z"/>
	<path class="st0" d="M191.9,174.6c-5,0-9.1-3.9-9.1-8.8c0-4.9,4.1-8.8,9.1-8.8s9.1,3.9,9.1,8.8C201,170.7,196.9,174.6,191.9,174.6z
		 M186.4,165.1c0.1,8.5,5.9,8.3,5.9,8.3c6-0.3,5.1-7.9,5.1-7.9c-0.4-7.1-5.9-7.2-5.9-7.2C185.9,158.8,186.4,165.1,186.4,165.1z"/>
	<path class="st0" d="M237.9,157.4h7.6v0.9h-0.9c0,0-1.4-0.1-1.3,1.1v12.2c0,0-0.3,1.2,1.2,1.3c0,0,5.6,1.3,6.2-3h0.9l-0.9,4.2
		h-12.8v-0.9h0.9c0,0,1,0,1.3-1.3v-12.4c0,0-0.1-1.1-1.1-1.2h-1.1L237.9,157.4L237.9,157.4z"/>
</g>
</svg>
