<?xml version="1.0" encoding="utf-8"?>
<!-- Generator: Adobe Illustrator 24.0.2, SVG Export Plug-In . SVG Version: 6.00 Build 0)  -->
<svg version="1.1" id="Capa_1" xmlns="http://www.w3.org/2000/svg" xmlns:xlink="http://www.w3.org/1999/xlink" x="0px" y="0px"
	 viewBox="0 0 300 200" style="enable-background:new 0 0 300 200;" xml:space="preserve">
<style type="text/css">
	.st0{fill-rule:evenodd;clip-rule:evenodd;fill:#FFFFFF;}
</style>
<g>
	<path class="st0" d="M139.5,100.2h8.2c0.4-2.4-0.3-4.4-3-4.4C142.1,95.8,140.3,97.1,139.5,100.2L139.5,100.2z"/>
	<path class="st0" d="M93.4,104.5c-1.1-0.2-3.5-0.8-5.7,0.6c-2.1,1.4-2.7,4-0.5,4.8c2.1,0.8,5.2-0.6,5.7-2.8L93.4,104.5L93.4,104.5z
		"/>
	<path class="st0" d="M243.6,103.8c0.7-2.2,0.3-4.9-0.4-5.9c-2-2.7-6.7-0.6-8.1,4.7c-0.9,3.5,1.1,6.1,3.4,6.1
		C240.9,108.7,242.4,106.7,243.6,103.8L243.6,103.8z"/>
	<path class="st0" d="M204.7,104.5c-1.1-0.2-3.5-0.8-5.7,0.6c-2.1,1.4-2.7,4-0.5,4.8c2.1,0.8,5.2-0.6,5.6-2.8L204.7,104.5
		L204.7,104.5z"/>
	<path class="st0" d="M195.1,34.6c-15.7,0-29.9,5.5-41.2,14.7c8.6,8.3,15.1,18.7,18.7,30.4h-5.4c-3.4-10.4-9.4-19.6-17.2-27
		c-7.7,7.4-13.7,16.6-17,27h-5.4c3.5-11.7,9.9-22.1,18.5-30.3c-11.2-9.1-25.4-14.7-41-14.7C69,34.7,39.7,64,39.7,100.1
		s29.3,65.4,65.4,65.4c15.6,0,29.8-5.6,41-14.7c-8.5-8.3-15-18.7-18.5-30.3h5.4c3.4,10.4,9.3,19.6,17,27c7.8-7.4,13.8-16.6,17.2-27
		h5.4c-3.5,11.7-10.1,22.1-18.7,30.4c11.3,9.2,25.5,14.7,41.2,14.7c36.1,0,65.4-29.3,65.4-65.4C260.4,63.9,231.2,34.6,195.1,34.6z
		 M69.2,115.3L73,94.8l-9.2,20.6h-6.2l-1.8-21.1l-4,21.1h-6.6l5.7-29.2h10.5l1.3,17.7l8-17.7h10.8L76,115.3H69.2z M92.4,115.3
		l-0.8-1.3c-1.2,0.8-2.1,1.3-5.5,1.4c-3.4,0.2-7.7-2.4-6.9-7.3C81,98,92.8,99.8,94.5,99.6c0.8-3.6-1.8-3.3-4-3.4
		c-2.3-0.1-6.6,0.6-8.2,0.8l1-5.2c4.3-0.8,6.6-0.8,8.6-0.8c11,0,10,7.9,9.3,11.2l-2.6,13.2L92.4,115.3L92.4,115.3z M119.1,108.5
		c-1.1,7.3-8.9,6.8-10.5,6.8c-2.3,0-4.7,0-7.8-0.8l0.9-5c3.3,1.1,7.7,0.6,8.7,0.6c2.2,0,2.5-2.8,0.8-3.6c-1.3-0.7-2.8-1.7-5.3-2.8
		c-1.6-0.7-3.2-2.5-2.3-7c1.2-5.8,9.1-5.7,10-5.7s3.4-0.3,6.5,0.9l-1.5,4.9c-1.9-0.5-5-0.5-6.5-0.3c-2.4,0.7-1.4,3-0.1,3.5
		c1.3,0.6,3.5,1.8,4.7,2.6C118.1,103.4,119.6,105,119.1,108.5z M130.5,114.2c-1.4,0.9-3.4,1.2-4.9,1.2s-6.5-0.9-5.2-7.5L125,85h6.6
		l-1.3,6.4h3.5l-1.2,5.2h-3.4l-1.9,9.8c-0.3,1.9-0.2,3.5,3.6,3L130.5,114.2z M145.1,109.9c2.6,0,6.4-0.3,7.4-0.6l-1,5
		c-1.6,0.8-5.7,1.2-8.4,1.1c-11.4,0-11.2-10.7-11-12.2c0.3-1.5,1.6-12.1,12.2-12.1c11.6,0,9.8,9.6,9,13.5H139
		C138.3,110,142.5,109.9,145.1,109.9z M162.2,104.4l-2,11h-6.6l4.5-24h5.7l0.6,2.4c1-1.2,3-2.4,6.2-2.4l-1.7,6.3
		C167.3,97.7,164.1,97.2,162.2,104.4z M187.2,107.9l1.9,5.9c-2.2,1-4.4,1.5-8,1.5c-6.8,0-14.3-6.1-10.9-18.4
		c2.5-9.1,10.3-12.4,14.8-12.2c5.4,0.2,7.3,2,9,3.9l-4.3,4.3c-1.7-1-2.9-1.2-5.1-1.2c-2.2,0-7.1,2.1-8,8
		C175.7,106.7,180.5,110.2,187.2,107.9z M203.7,115.3l-0.8-1.3c-1.2,0.8-2.1,1.3-5.5,1.4c-3.4,0.2-7.7-2.4-6.9-7.3
		c1.9-10.1,13.7-8.3,15.3-8.4c0.8-3.6-1.8-3.3-4-3.4c-2.3-0.1-6.6,0.6-8.2,0.8l1-5.2c4.3-0.8,6.6-0.8,8.6-0.8c11,0,10,7.9,9.3,11.2
		l-2.6,13.2h-6.2V115.3z M221.1,104.2l-2,11.1h-6.6l4.5-24.2h5.7l0.6,2.4c1-1.2,3-2.4,6.3-2.4l-1.8,6.3
		C226.1,97.4,223,97,221.1,104.2z M241.8,115.3l-0.8-1.9c-1.3,0.9-3.5,1.9-5.7,1.9c-4.7,0-9.1-6.7-6.9-14c3.2-11,8.9-10.3,12.5-10.3
		c3.1,0,3.9,1.9,5.1,2.9l1.8-9.3h6.9l-5.7,30.7H241.8z"/>
</g>
</svg>
