<?xml version="1.0" encoding="utf-8"?>
<!-- Generator: Adobe Illustrator 24.0.2, SVG Export Plug-In . SVG Version: 6.00 Build 0)  -->
<svg version="1.1" id="Capa_1" xmlns="http://www.w3.org/2000/svg" xmlns:xlink="http://www.w3.org/1999/xlink" x="0px" y="0px"
	 viewBox="0 0 300 200" style="enable-background:new 0 0 300 200;" xml:space="preserve">
<style type="text/css">
	.st0{fill:#FFFFFF;}
</style>
<path class="st0" d="M123.9,66.2L95.5,134H76.9l-14-54.1c-0.8-3.3-1.6-4.6-4.2-6c-4.2-2.3-11.2-4.4-17.3-5.8l0.4-2h29.9
	c3.8,0,7.2,2.5,8.1,6.9l7.4,39.2L105.5,66h18.4V66.2z M196.5,111.9C196.6,94,171.8,93,172,85c0.1-2.4,2.4-5,7.4-5.7
	c2.5-0.3,9.4-0.6,17.3,3l3.1-14.4c-4.2-1.5-9.7-3-16.4-3c-17.3,0-29.5,9.2-29.6,22.4c-0.1,9.8,8.7,15.2,15.4,18.5
	c6.8,3.3,9.1,5.5,9.1,8.4c-0.1,4.6-5.5,6.6-10.5,6.6c-8.8,0.1-13.9-2.4-18-4.3l-3.2,14.9c4.1,1.9,11.7,3.5,19.5,3.6
	C184.4,135.1,196.5,126,196.5,111.9 M242.3,134h16.2l-14.2-67.8h-15c-3.4,0-6.2,2-7.5,5L195.6,134H214l3.7-10.1h22.5L242.3,134z
	 M222.7,110l9.2-25.5l5.3,25.5H222.7z M148.9,66.2L134.4,134h-17.5l14.5-67.8H148.9z"/>
</svg>
