<?xml version="1.0" encoding="utf-8"?>
<!-- Generator: Adobe Illustrator 24.0.2, SVG Export Plug-In . SVG Version: 6.00 Build 0)  -->
<svg version="1.1" id="Capa_1" xmlns="http://www.w3.org/2000/svg" xmlns:xlink="http://www.w3.org/1999/xlink" x="0px" y="0px"
	 viewBox="0 0 300 200" style="enable-background:new 0 0 300 200;" xml:space="preserve">
<style type="text/css">
	.st0{fill:#FFFFFF;}
</style>
<g>
	<path class="st0" d="M197.7,126.5c-6.9,0.5-13.8,1.1-20.7,1.7c-4.2,0.4-8.4,1-12.8,1.6c0.5-3.1,0.9-6,1.4-9
		c0.6,0.4,0.9,0.6,1.2,0.9c4.2,3,8.3,2.6,11.8-1.2c2.7-3,4.1-6.6,5.2-10.4c1.8-6,3-12,1.3-18.2c-1.4-5.4-6.7-6.8-10.8-2.8
		c-0.8,0.8-1.6,1.6-2.4,2.2c-0.2-0.6-0.2-1.5-0.6-2c-2-1.9-5.2-1-5.7,1.7c-1.5,7.6-2.9,15.2-4.5,22.8c-0.2,0.9-1,1.8-1.7,2.5
		c-0.5,0.5-1.3,0.5-2,0.8c-0.2-0.7-0.8-1.5-0.7-2.2c0.3-2.7,0.7-5.4,1.3-8c0.9-4.6,2-9.2,2.9-13.8c0.3-1.7-0.4-2.7-2.1-3.2
		c-2.5-0.6-3-0.4-4.6,2.5c-4.4-2.6-7.5-2.1-11.1,1.6c-3,3.1-4.9,7-6.3,11c-2,5.6-3.1,11.3-1.7,17.2c0.6,2.6,2,4.6,4.7,5.4
		c2.9,0.9,5.4,0,7.4-2.1c0.9-0.9,1.6-2.1,2.4-3.2c0.6,2.1,1.8,3.7,4,3.6c1.9-0.1,3.7-1,5.6-1.6c-0.3,1.6-0.8,3.2-0.9,4.9
		c-0.1,1.5-0.9,1.9-2.2,2.1c-7.7,1.2-15.4,2.4-23.1,3.7c-2.4,0.4-4.9,0.8-7.6,1.3c1.1-4,2.1-7.6,3.2-11.2c2.7-9.9,5.5-19.7,8.2-29.6
		c0.7-2.6-0.4-3.6-3-3c-3.1,0.7-5,2.7-6,5.7c-2.1,6-4.3,12-6.7,17.8c-0.7,1.7-2.1,3.1-3.5,4.4c-0.6,0.6-2.2,0.9-2.8,0.5
		c-0.7-0.4-1.1-1.8-1-2.8c0.2-1.8,0.6-3.6,1.1-5.3c1-3.6,2.2-7.2,3-10.9c0.6-2.4-1.4-4.3-4.2-4.4c-1.8-0.1-2.3,0.8-2.5,3.6
		c-0.1,1.4-0.4,2.7-0.8,4c-0.6,2-1.5,3.9-2.1,5.9c-1,3.8-2,7.5-2.6,11.4c-0.5,2.8,0.2,5.6,2.8,7.3c2.7,1.7,5.3,1,7.7-0.8
		c1.3-1,2.6-2.2,4.1-3.4c-1.4,4.3-2.7,8.4-4.1,12.4c-0.2,0.6-1,1.1-1.6,1.4c-3.4,1.9-7,3.4-10.2,5.6c-7.2,4.9-12.3,11.5-14.1,20.2
		c-0.8,3.9-0.1,7.3,3.1,9.9c3.3,2.6,6.9,2.2,10.5,0.5c3.4-1.7,5.9-4.5,8.2-7.4c4.6-6,7.3-13,9.7-20.1c0.4-1.4,1.1-2.1,2.5-2.3
		c8-1.6,15.9-3.3,23.8-4.9c2.6-0.5,5.3-0.9,8.1-1.3c0,0.9-0.1,1.6,0.1,2.2c0.4,1,1,2.3,1.7,2.6c0.8,0.3,2.2-0.3,2.9-1
		c0.8-0.8,1.3-2,1.6-3.1c0.3-1.2,0.9-1.6,2-1.8c7.2-0.9,14.5-1.9,21.7-2.8c4.3-0.6,8.6-1.1,12.9-1.8c2.2-0.4,2.9-2.3,2-4.4
		C200.5,127.1,199.2,126.4,197.7,126.5z M167.7,114.7c1.3-5,2.6-10,4.1-14.8c0.6-1.7,1.9-3.3,3.2-4.6c1.5-1.5,3.1-1,3.6,1.1
		c0.3,1.1,0.3,2.2,0.4,2.8c-0.2,5.1-1.6,9.4-3.6,13.5c-1.2,2.4-2.9,4.3-6,4C168.2,116.6,167.3,116.1,167.7,114.7z M153,99.4
		c-1.6,5.5-3.4,11-5.2,16.5c-0.2,0.7-0.7,1.3-1.2,1.9c-1.3,1.4-3.2,1.2-4-0.5c-0.6-1.4-0.9-3-1.2-4c0.7-5.5,1.8-10.3,5.7-13.9
		c1-0.9,2.3-1.6,3.5-2.1C152.1,96.7,153.5,97.8,153,99.4z M103.9,165.3c-0.9,1-2,2-3.1,2.7c-0.7,0.4-2.1,0.7-2.6,0.3
		c-0.6-0.5-1-1.8-0.8-2.6c0.5-1.9,1.2-3.7,2.1-5.4c3.1-5.4,7.6-9.4,13.8-12.2C110.9,154.6,108.1,160.4,103.9,165.3z M193.7,107.9
		c0.2-1.2,0.8-1.7,2.1-1.9c7.2-1.5,12.8-7.4,14.1-14.6c0.8-4.5-1.8-7.8-6.4-8c-2.5-0.1-4.7,0.7-6.6,2.4
		c-7.3,6.7-10.1,15.4-10.9,24.9c0.2,1.6,0.3,3.1,0.5,4.6c0.9,5.2,4.9,7.8,9.9,6.5c4.3-1.1,7.6-3.7,10.6-6.8c2-2.1,2.2-3.1,1.1-5.7
		c-1-2.2-1.9-2.2-3.6-0.5c-1.6,1.6-3.4,3.1-5.3,4.5c-1.4,1-3.2,1.6-4.8,0.4c-1.6-1.3-1.2-3.1-1-4.9
		C193.5,108.4,193.6,108.2,193.7,107.9z M199.8,91.6c0.7-1,1.9-2,3-1.1c0.6,0.5,0.8,2.2,0.4,3.2c-1.2,3.4-4,5.1-7.3,6.1
		c-0.2-0.2-0.5-0.3-0.7-0.5C196.8,96.6,198.2,94,199.8,91.6z"/>
	<path class="st0" d="M156.8,23.6c-14.7,0-26.6,11.9-26.6,26.6c0,7,2.7,13.4,7.2,18.2l-0.6,11.3c-0.1,1,1.1,1.7,1.9,1.1l8.4-5.8
		c3,1.2,6.3,1.9,9.8,1.9c14.7,0,26.6-11.9,26.6-26.6S171.6,23.6,156.8,23.6z M158.8,60.8c-0.7,1.2-1.6,2-2.8,2.7
		c-1.2,0.6-2.6,0.9-4.2,0.9c-2.5,0-4.6-0.8-6.1-2.2c-1.5-1.5-2.3-3.5-2.4-6c0,0,0-0.5,0.3-0.9c0.3-0.3,0.7-0.5,1.3-0.5
		c0.7,0,1.2,0.1,1.5,0.5c0.3,0.2,0.3,0.6,0.3,0.8c0.1,1.1,0.4,2,0.8,2.6c0.4,0.6,1,1.1,1.7,1.5c0.8,0.4,1.6,0.6,2.6,0.6
		c1.4,0,2.4-0.3,3.2-0.9c0.7-0.6,1.1-1.4,1.1-2.4c0-0.6-0.1-1.1-0.4-1.5c-0.3-0.4-0.6-0.8-1.2-1c-0.6-0.3-1.9-0.7-3.9-1.3
		c-1.9-0.5-3.2-1.1-4-1.7c-0.8-0.6-1.5-1.3-2-2.2s-0.7-1.9-0.7-3c0-2,0.7-3.6,2-4.9c1.3-1.3,3.1-1.9,5.3-1.9c1.5,0,2.9,0.3,4,0.9
		c1.2,0.6,2.1,1.5,2.7,2.6c0.6,1.1,1,2.4,1,3.9c0,0,0,0.6-0.4,1c-0.2,0.2-0.6,0.5-1.2,0.5c-0.7,0-1.2-0.1-1.5-0.5
		c-0.4-0.3-0.4-0.7-0.4-0.8c-0.1-1.3-0.5-2.3-1.2-2.9c-0.7-0.6-1.7-0.9-2.9-0.9c-1.3,0-2.3,0.3-3,0.8c-0.6,0.5-0.9,1.2-0.9,2
		s0.2,1.3,0.7,1.8c0.3,0.3,1.2,0.8,3.5,1.4c1.9,0.5,3.3,1,4.1,1.4l0,0c1.3,0.6,2.2,1.5,2.9,2.5s1,2.3,1,3.7
		C159.8,58.4,159.5,59.7,158.8,60.8z M174.6,43.7l-10.3,18.7c-0.3,0.6-1,1-1.6,1c-0.3,0-0.6-0.1-0.9-0.2c-0.9-0.5-1.2-1.6-0.7-2.5
		L171.4,42c0.5-0.9,1.6-1.2,2.5-0.7l0,0C174.8,41.6,175.1,42.8,174.6,43.7z"/>
</g>
</svg>
