<?xml version="1.0" encoding="utf-8"?>
<!-- Generator: Adobe Illustrator 24.0.2, SVG Export Plug-In . SVG Version: 6.00 Build 0)  -->
<svg version="1.1" id="Capa_1" xmlns="http://www.w3.org/2000/svg" xmlns:xlink="http://www.w3.org/1999/xlink" x="0px" y="0px"
	 viewBox="0 0 396 200" style="enable-background:new 0 0 396 200;" xml:space="preserve">
<style type="text/css">
	.st0{fill:#E4AA2C;}
	.st1{fill:#006699;}
	.st2{fill:#FFFFFF;}
</style>
<g>
	<g>
		<polygon class="st0" points="22.5,48 22.5,151.6 118.5,99.8 		"/>
		<polygon class="st0" points="82.7,48 82.7,69.1 139.7,99.8 82.7,130.6 82.7,151.6 178.7,99.8 		"/>
	</g>
</g>
<path class="st1" d="M373.6,169.4c0,9.6-7.8,17.4-17.3,17.4H219c-9.6,0-17.3-7.8-17.3-17.4V30.2c0-9.6,7.8-17.4,17.3-17.4h137.3
	c9.6,0,17.3,7.8,17.3,17.4V169.4z"/>
<g>
	<path class="st2" d="M257.6,55.4c0,6.4-4.7,11.6-12.5,11.6c-7.3,0-12-5.2-12-11.6c0-6.5,4.9-11.6,12.3-11.6
		C252.8,43.8,257.4,48.8,257.6,55.4z M233.7,150.5V76.1h23.1v74.4H233.7z"/>
	<path class="st2" d="M270.6,99.8c0-9.3-0.3-17-0.6-23.7h20.1l1.1,10.3h0.5c3-4.9,10.5-12,23-12c15.2,0,26.6,10.2,26.6,32.1v44
		h-23.1v-41.2c0-9.6-3.3-16.1-11.7-16.1c-6.4,0-10.2,4.4-11.9,8.7c-0.6,1.5-0.8,3.7-0.8,5.8v42.9h-23.1V99.8z"/>
</g>
</svg>
