<?xml version="1.0" encoding="utf-8"?>
<!-- Generator: Adobe Illustrator 24.0.2, SVG Export Plug-In . SVG Version: 6.00 Build 0)  -->
<svg version="1.1" id="Capa_1" xmlns="http://www.w3.org/2000/svg" xmlns:xlink="http://www.w3.org/1999/xlink" x="0px" y="0px"
	 viewBox="0 0 512 512" style="enable-background:new 0 0 512 512;" xml:space="preserve">
<style type="text/css">
	.st0{fill:#232B5A;}
</style>
<g>
	<path class="st0" d="M442.6,197.2C460.5,144,414,88.5,356.3,101c-10.3-45.6-51.3-80.2-100.6-80.2c-49.1,0-90.1,34-100.3,80.3
		c-57.4-12.7-104.6,42.7-86.5,96.2C46.7,202.6,30,221.9,30,246.4c0,27.9,22.7,50.5,50.5,50.5c132.6,0,83.1,0,107,0
		c0.8,102.5-1.8,99.2,2.3,105.4l55.5,82.7c5.5,8.2,17.6,8.1,23-0.2l53.9-82.7c4-6.1,1.5-2.7,2.2-105.3h107
		c27.9,0,50.5-22.7,50.5-50.5C482,221.8,465,202.3,442.6,197.2L442.6,197.2z M296.9,380.9h-27.1v-83.6h27.1V380.9z M242.2,380.9
		h-27.1v-83.6h27.1V380.9z M256.6,452.4l-29.5-43.9h58.1L256.6,452.4z M431.5,269.4h-96.7c-36.6-0.5-56.3-44.8-29.6-71.4
		c12.9-12.9,32.5-15.9,48.7-7.4c6.7,3.5,15.1,0.9,18.6-5.8c3.5-6.7,0.9-15.1-5.8-18.6c-26.9-14.1-59.5-9.1-81,12.4
		c-25.4,25.4-26.6,63.5-6.1,90.9H232c20.6-27.5,19.3-65.5-6.1-90.9c-21.5-21.5-54-26.4-81-12.4c-6.7,3.5-9.4,11.8-5.8,18.6
		c3.5,6.7,11.8,9.4,18.6,5.8c16.2-8.5,35.8-5.5,48.7,7.4c26.6,26.6,7,70.9-29.6,71.4H80.5c-12.7,0-23-10.3-23-23
		c0-15.3,13.9-24.9,26.9-22.7c22.3,25.5,63,33.3,95.2,14.9c6.6-3.8,8.9-12.2,5.1-18.8c-3.8-6.6-12.2-8.9-18.8-5.1
		C127.2,236.9,81,200,95.2,158.5c9.3-27.1,40.3-39.4,65.4-26.5c8.9,4.6,19.6-1.6,20-11.7c1.7-40.3,34.7-71.9,75.1-71.9
		c40.5,0,73.6,31.5,75.4,71.8c0.4,10,11.1,16.2,20,11.7c24.9-12.5,55.9-0.7,65.2,26.7c14.1,41.6-32.2,78.2-70.8,56.1
		c-6.6-3.8-15-1.5-18.8,5.1c-3.8,6.6-1.5,15,5.1,18.8c31.5,18,70.7,11.7,94.9-14.8c13.1-2.7,27.6,6.9,27.6,22.5
		C454.4,259.1,444.1,269.4,431.5,269.4L431.5,269.4z"/>
</g>
</svg>
