<?xml version="1.0" encoding="utf-8"?>
<!-- Generator: Adobe Illustrator 24.0.2, SVG Export Plug-In . SVG Version: 6.00 Build 0)  -->
<svg version="1.1" id="Capa_1" xmlns="http://www.w3.org/2000/svg" xmlns:xlink="http://www.w3.org/1999/xlink" x="0px" y="0px"
	 viewBox="0 0 512 512" style="enable-background:new 0 0 512 512;" xml:space="preserve">
<style type="text/css">
	.st0{fill:#232B5A;}
</style>
<g>
	<path class="st0" d="M382.8,226.9v-82.6c0-6.3-4.5-11.7-10.6-12.9L261.9,67.8c-4.1-2.3-9.1-2.3-13.1,0l-113,65.2
		c-4.1,2.3-6.6,6.7-6.6,11.4v82.6c-43.5,13.7-97.2,42-97.2,87.6c0,39.1,41.5,73.1,111.4,91.7l-5.2,23.9c-2.2,10.2,7.9,18.9,17.7,15
		l65.6-26.3c8.7-3.5,11.1-14.7,4.5-21.4l-49-49.9c-7.3-7.4-20-3.8-22.2,6.4l-5.8,26.6c-55.4-14.9-90.7-40.4-90.7-66
		c0-22.2,26.9-44.6,71-59.9v20.2c0,4.7,2.5,9,6.6,11.4l113.7,65.6c4.1,2.3,9.1,2.3,13.1,0l113.7-65.6c4.1-2.3,6.6-6.7,6.6-11.4
		v-20.2c44.1,15.3,71,37.7,71,59.9c0,48.6-106.7,73.3-159.2,77.6c-7.2,0.6-12.6,6.9-12,14.2c0.6,7.2,6.9,12.6,14.2,12
		c68.3-5.6,183.3-35.2,183.3-103.8C480,268.9,426.3,240.6,382.8,226.9L382.8,226.9z M175.3,383.2l18.2,18.5l-24.3,9.7L175.3,383.2z
		 M255.3,94.3l87.4,50.5c-10.7,6.2-79.6,45.9-86.7,50.1c-7.8-4.5-75.8-43.7-87.4-50.5L255.3,94.3z M155.5,167.1l87.4,50.5v100.1
		l-87.4-50.5V167.1z M356.5,267.2l-87.4,50.5V217.5l87.4-50.5V267.2z"/>
</g>
</svg>
