<?xml version="1.0" encoding="utf-8"?>
<!-- Generator: Adobe Illustrator 24.0.2, SVG Export Plug-In . SVG Version: 6.00 Build 0)  -->
<svg version="1.1" id="Capa_1" xmlns="http://www.w3.org/2000/svg" xmlns:xlink="http://www.w3.org/1999/xlink" x="0px" y="0px"
	 viewBox="0 0 239 180" style="enable-background:new 0 0 239 180;" xml:space="preserve">
<style type="text/css">
	.st0{fill:#FFFFFF;}
	.st1{fill:#FEFEFF;}
</style>
<g>
	<path class="st0" d="M116.8,139.4v-40c0,0-19-13-52-10l-36,34C28.8,123.4,88.9,117.2,116.8,139.4z"/>
	<path class="st0" d="M112.4,142.5c-16.8-13-42.1-16.3-84.3-13.7v2.2C76.7,131,91.4,131.8,112.4,142.5z"/>
	<path class="st0" d="M28.4,134.9v11c22.2-2.5,56.5-2.9,82.3-2C84.3,133.1,61.3,133.8,28.4,134.9z"/>
	<path class="st0" d="M119.4,140.9V99.5c0,0,16.1-23.6,47.3-24.2l32.5,35.7C180.3,105,146.6,120.6,119.4,140.9z"/>
	<path class="st0" d="M128.1,139.9c0,0,37.1-29.5,66.2-25.5c8.5,1.2,10.7,7.1,10.7,7.1s-13.1-1.7-20.8-0.6
		C168.6,123.1,153.1,127.3,128.1,139.9z"/>
	<path class="st0" d="M207.4,129.9c0,0-42-4.8-74.6,7.2c0,0,24.7-14.4,60.9-13.7C203,123.6,206.9,126.8,207.4,129.9z"/>
	<path class="st0" d="M208.3,134v11c0,0-60.4-3.6-76.2-1.7C154.9,134.1,178.3,132.5,208.3,134z"/>
	<path class="st0" d="M25.2,144.6l-9.7,12.8l93.5-4.9c0,0,3,3.3,10,3.3s10.9-4.3,10.9-4.3l93.6,6.2l-10-15.4l-1.3,8.4l-84.3-4.6
		c0,0-3.3,3.8-8.9,3.8s-9.5-3.3-9.5-3.3l-84.1,2.5L25.2,144.6z"/>
</g>
<g>
	<path class="st1" d="M77.5,14.4H79v13h5.6v1.4h-7V14.4z"/>
	<path class="st1" d="M86.1,14.4h1.4v14.4h-1.4V14.4z"/>
	<path class="st1" d="M90.4,14.4h2.8c1.1,0,2,0.1,2.6,0.4c0.6,0.3,1.1,0.7,1.5,1.2c0.4,0.6,0.5,1.2,0.5,1.9c0,0.6-0.2,1.2-0.5,1.7
		s-0.8,0.9-1.4,1.3c0.8,0.3,1.3,0.6,1.7,0.9c0.4,0.3,0.7,0.8,0.9,1.2c0.2,0.5,0.3,1,0.3,1.6c0,1.2-0.4,2.1-1.3,2.9
		c-0.8,0.8-2,1.2-3.4,1.2h-4V14.4z M91.8,15.8v4.6h0.8c1,0,1.7-0.1,2.2-0.3c0.5-0.2,0.8-0.5,1.1-0.9c0.3-0.4,0.4-0.8,0.4-1.3
		c0-0.7-0.2-1.2-0.7-1.5s-1.2-0.6-2.2-0.6H91.8z M91.8,21.8v5.5h1.8c1.1,0,1.8-0.1,2.3-0.3c0.5-0.2,0.9-0.5,1.2-1
		c0.3-0.4,0.4-0.9,0.4-1.4c0-0.6-0.2-1.2-0.6-1.7c-0.4-0.5-1-0.8-1.7-1c-0.5-0.1-1.3-0.2-2.6-0.2H91.8z"/>
	<path class="st1" d="M101.5,14.4h2.9c1.6,0,2.7,0.1,3.3,0.2c0.9,0.2,1.6,0.6,2.1,1.3s0.8,1.4,0.8,2.4c0,0.8-0.2,1.5-0.6,2.1
		s-0.9,1-1.6,1.3s-1.6,0.5-2.8,0.5l5.2,6.7h-1.8l-5.2-6.7h-0.8v6.7h-1.4V14.4z M102.9,15.8v4.9l2.5,0c1,0,1.7-0.1,2.1-0.3
		c0.5-0.2,0.8-0.5,1.1-0.9c0.3-0.4,0.4-0.8,0.4-1.3c0-0.5-0.1-0.9-0.4-1.3c-0.3-0.4-0.6-0.7-1-0.8c-0.4-0.2-1.1-0.3-2.1-0.3H102.9z"
		/>
	<path class="st1" d="M120,14c2.2,0,4,0.7,5.5,2.2c1.5,1.5,2.2,3.2,2.2,5.4c0,2.1-0.7,3.9-2.2,5.3c-1.5,1.5-3.3,2.2-5.4,2.2
		c-2.1,0-4-0.7-5.4-2.2c-1.5-1.5-2.2-3.2-2.2-5.3c0-1.4,0.3-2.7,1-3.8c0.7-1.2,1.6-2.1,2.7-2.8C117.4,14.3,118.7,14,120,14z
		 M120.1,15.4c-1.1,0-2.1,0.3-3,0.8s-1.7,1.3-2.2,2.2c-0.5,0.9-0.8,2-0.8,3.1c0,1.7,0.6,3.1,1.8,4.3c1.2,1.2,2.6,1.8,4.3,1.8
		c1.1,0,2.2-0.3,3.1-0.8c1-0.5,1.7-1.3,2.2-2.2c0.5-0.9,0.8-2,0.8-3.1c0-1.1-0.3-2.2-0.8-3.1c-0.5-0.9-1.3-1.7-2.3-2.2
		S121.2,15.4,120.1,15.4z"/>
	<path class="st1" d="M135.2,28.7V14.4h3c2.2,0,3.7,0.2,4.7,0.5c1.4,0.5,2.5,1.3,3.3,2.5c0.8,1.2,1.2,2.6,1.2,4.3
		c0,1.4-0.3,2.7-0.9,3.8c-0.6,1.1-1.4,1.9-2.4,2.4c-1,0.5-2.4,0.8-4.2,0.8H135.2z M136.6,27.4h1.7c2,0,3.4-0.1,4.2-0.4
		c1.1-0.4,1.9-1,2.6-1.9c0.6-0.9,0.9-2,0.9-3.3c0-1.4-0.3-2.6-1-3.5c-0.7-1-1.6-1.7-2.8-2c-0.9-0.3-2.4-0.4-4.5-0.4h-1V27.4z"/>
	<path class="st1" d="M149.6,14.4h8.3v1.4h-6.8v4.5h6.8v1.4h-6.8v5.6h6.8v1.4h-8.2V14.4z"/>
	<path class="st1" d="M39.1,42.6H42c1.6,0,2.7,0.1,3.3,0.2c0.9,0.2,1.6,0.6,2.1,1.3s0.8,1.4,0.8,2.4c0,0.8-0.2,1.5-0.6,2.1
		s-0.9,1-1.6,1.3s-1.6,0.5-2.8,0.5l5.2,6.7h-1.8l-5.2-6.7h-0.8v6.7h-1.4V42.6z M40.6,44v4.9l2.5,0c1,0,1.7-0.1,2.1-0.3
		c0.5-0.2,0.8-0.5,1.1-0.9c0.3-0.4,0.4-0.8,0.4-1.3c0-0.5-0.1-0.9-0.4-1.3c-0.3-0.4-0.6-0.7-1-0.8c-0.4-0.2-1.1-0.3-2.1-0.3H40.6z"
		/>
	<path class="st1" d="M50.8,42.6H59V44h-6.8v4.5H59v1.4h-6.8v5.6H59v1.4h-8.2V42.6z"/>
	<path class="st1" d="M74.5,45.2l-1.1,0.9c-0.6-0.8-1.4-1.4-2.3-1.8s-1.8-0.6-2.9-0.6c-1.2,0-2.2,0.3-3.2,0.8
		c-1,0.5-1.7,1.3-2.3,2.2c-0.5,0.9-0.8,2-0.8,3.1c0,1.7,0.6,3.2,1.8,4.4c1.2,1.2,2.7,1.8,4.6,1.8c2,0,3.7-0.8,5.1-2.4l1.1,0.9
		c-0.7,0.9-1.6,1.6-2.7,2.1s-2.3,0.7-3.6,0.7c-2.5,0-4.5-0.8-6-2.5c-1.2-1.4-1.8-3.1-1.8-5.1c0-2.1,0.7-3.9,2.2-5.3
		c1.5-1.4,3.3-2.2,5.6-2.2c1.3,0,2.6,0.3,3.7,0.8C72.9,43.5,73.8,44.3,74.5,45.2z"/>
	<path class="st1" d="M76.9,42.6h1.4v13h5.6v1.4h-7V42.6z"/>
	<path class="st1" d="M91.6,42.6l6.7,14.4h-1.6l-2.3-4.7h-6.2L86,56.9h-1.6l6.8-14.4H91.6z M91.4,45.6l-2.5,5.2h4.9L91.4,45.6z"/>
	<path class="st1" d="M99.4,56.9l2.1-14.4h0.2l5.9,11.8l5.8-11.8h0.2l2.1,14.4h-1.4l-1.4-10.3l-5.1,10.3h-0.4l-5.2-10.3l-1.4,10.3
		H99.4z"/>
	<path class="st1" d="M123.9,42.6l6.7,14.4h-1.6l-2.3-4.7h-6.2l-2.3,4.7h-1.6l6.8-14.4H123.9z M123.8,45.6l-2.5,5.2h4.9L123.8,45.6z
		"/>
	<path class="st1" d="M145.9,45.2l-1.1,0.9c-0.6-0.8-1.4-1.4-2.3-1.8s-1.8-0.6-2.9-0.6c-1.2,0-2.2,0.3-3.2,0.8
		c-1,0.5-1.7,1.3-2.3,2.2c-0.5,0.9-0.8,2-0.8,3.1c0,1.7,0.6,3.2,1.8,4.4c1.2,1.2,2.7,1.8,4.6,1.8c2,0,3.7-0.8,5.1-2.4l1.1,0.9
		c-0.7,0.9-1.6,1.6-2.7,2.1s-2.3,0.7-3.6,0.7c-2.5,0-4.5-0.8-6-2.5c-1.2-1.4-1.8-3.1-1.8-5.1c0-2.1,0.7-3.9,2.2-5.3
		c1.5-1.4,3.3-2.2,5.6-2.2c1.3,0,2.6,0.3,3.7,0.8C144.3,43.5,145.2,44.3,145.9,45.2z"/>
	<path class="st1" d="M148.1,42.6h1.4v14.4h-1.4V42.6z"/>
	<path class="st1" d="M159.2,42.2c2.2,0,4,0.7,5.5,2.2c1.5,1.5,2.2,3.2,2.2,5.4c0,2.1-0.7,3.9-2.2,5.3c-1.5,1.5-3.3,2.2-5.4,2.2
		c-2.1,0-4-0.7-5.4-2.2c-1.5-1.5-2.2-3.2-2.2-5.3c0-1.4,0.3-2.7,1-3.8c0.7-1.2,1.6-2.1,2.7-2.8C156.6,42.5,157.8,42.2,159.2,42.2z
		 M159.3,43.6c-1.1,0-2.1,0.3-3,0.8s-1.7,1.3-2.2,2.2c-0.5,0.9-0.8,2-0.8,3.1c0,1.7,0.6,3.1,1.8,4.3c1.2,1.2,2.6,1.8,4.3,1.8
		c1.1,0,2.2-0.3,3.1-0.8c1-0.5,1.7-1.3,2.2-2.2c0.5-0.9,0.8-2,0.8-3.1c0-1.1-0.3-2.2-0.8-3.1c-0.5-0.9-1.3-1.7-2.3-2.2
		S160.3,43.6,159.3,43.6z"/>
	<path class="st1" d="M169.3,56.9V42.6h0.3l9.6,11v-11h1.4v14.4h-0.3l-9.5-10.9v10.9H169.3z"/>
	<path class="st1" d="M183.7,42.6h8.3V44h-6.8v4.5h6.8v1.4h-6.8v5.6h6.8v1.4h-8.2V42.6z"/>
	<path class="st1" d="M192.5,54.3l1.2-0.7c0.9,1.6,1.9,2.4,3,2.4c0.5,0,0.9-0.1,1.4-0.3c0.4-0.2,0.7-0.5,1-0.9
		c0.2-0.4,0.3-0.8,0.3-1.2c0-0.5-0.2-1-0.5-1.4c-0.5-0.6-1.3-1.4-2.5-2.3c-1.2-0.9-2-1.6-2.3-2c-0.5-0.7-0.8-1.4-0.8-2.2
		c0-0.6,0.2-1.2,0.5-1.7c0.3-0.5,0.7-0.9,1.3-1.2s1.1-0.4,1.8-0.4c0.7,0,1.3,0.2,1.9,0.5s1.2,1,1.9,1.8l-1.2,0.9
		c-0.5-0.7-1-1.2-1.4-1.4c-0.4-0.2-0.8-0.3-1.3-0.3c-0.6,0-1.1,0.2-1.4,0.5c-0.4,0.4-0.6,0.8-0.6,1.3c0,0.3,0.1,0.6,0.2,0.9
		c0.1,0.3,0.4,0.6,0.7,1c0.2,0.2,0.8,0.7,1.9,1.4c1.3,0.9,2.1,1.7,2.6,2.4c0.5,0.7,0.7,1.4,0.7,2.2c0,1-0.4,1.9-1.2,2.7
		c-0.8,0.8-1.8,1.2-2.9,1.2c-0.9,0-1.7-0.2-2.4-0.7C193.7,56.1,193.1,55.3,192.5,54.3z"/>
</g>
</svg>
