<?xml version="1.0" encoding="utf-8"?>
<!-- Generator: Adobe Illustrator 24.0.2, SVG Export Plug-In . SVG Version: 6.00 Build 0)  -->
<svg version="1.1" id="Capa_1" xmlns="http://www.w3.org/2000/svg" xmlns:xlink="http://www.w3.org/1999/xlink" x="0px" y="0px"
	 viewBox="0 0 200 200" style="enable-background:new 0 0 200 200;" xml:space="preserve">
<style type="text/css">
	.st0{fill:#232B5A;}
</style>
<g>
	<path class="st0" d="M166.6,57H33.4c-3.1,0-5.6-2.5-5.6-5.6V45c0-3.1,2.5-5.6,5.6-5.6h133.2c3.1,0,5.6,2.5,5.6,5.6v6.3
		C172.2,54.5,169.7,57,166.6,57z"/>
	<path class="st0" d="M166.6,91.5H33.4c-3.1,0-5.6-2.5-5.6-5.6v-6.3c0-3.1,2.5-5.6,5.6-5.6h133.2c3.1,0,5.6,2.5,5.6,5.6v6.3
		C172.2,89,169.7,91.5,166.6,91.5z"/>
	<path class="st0" d="M166.6,126.1H33.4c-3.1,0-5.6-2.5-5.6-5.6v-6.3c0-3.1,2.5-5.6,5.6-5.6h133.2c3.1,0,5.6,2.5,5.6,5.6v6.3
		C172.2,123.5,169.7,126.1,166.6,126.1z"/>
	<path class="st0" d="M166.6,160.6H33.4c-3.1,0-5.6-2.5-5.6-5.6v-6.3c0-3.1,2.5-5.6,5.6-5.6h133.2c3.1,0,5.6,2.5,5.6,5.6v6.3
		C172.2,158.1,169.7,160.6,166.6,160.6z"/>
</g>
</svg>
