<?xml version="1.0" encoding="utf-8"?>
<!-- Generator: Adobe Illustrator 24.0.2, SVG Export Plug-In . SVG Version: 6.00 Build 0)  -->
<svg version="1.1" id="Capa_1" xmlns="http://www.w3.org/2000/svg" xmlns:xlink="http://www.w3.org/1999/xlink" x="0px" y="0px"
	 viewBox="0 0 512 512" style="enable-background:new 0 0 512 512;" xml:space="preserve">
<style type="text/css">
	.st0{fill:#232B5A;}
</style>
<g>
	<path class="st0" d="M371.7,175.2c3.5-0.4,6.5,2.2,6.5,5.7c0,7.5,6.1,13.6,13.6,13.6c7.5,0,13.6-6.1,13.6-13.6
		c0-19.8-17.2-35-36.8-32.9c-7.5,0.8-12.9,7.6-12.1,15.1C357.5,170.6,364.2,176,371.7,175.2L371.7,175.2z"/>
	<path class="st0" d="M133.8,181c0-3.5,3-6.1,6.5-5.7c7.5,0.8,14.2-4.6,15.1-12.1c0.8-7.5-4.6-14.2-12.1-15.1
		c-19.7-2.2-36.8,13.1-36.8,32.9c0,7.5,6.1,13.6,13.6,13.6C127.7,194.6,133.8,188.5,133.8,181z"/>
	<path class="st0" d="M385.6,284.8c-6.6-3.7-14.9-1.3-18.5,5.3c-3.7,6.6-1.3,14.9,5.3,18.5c6.8,3.7,8,11.3,5.8,16.6
		c-2,4.7-7.4,8.1-12.6,8c-7.5-0.3-13.8,5.6-14.1,13.2c-0.2,7.1,5,14.1,14.5,14.1c15.9,0,31.2-10,37.4-24.6
		C411.3,316.9,403.7,294.9,385.6,284.8L385.6,284.8z"/>
	<path class="st0" d="M146.5,333.2c-5.2,0.2-10.6-3.2-12.6-8c-2.2-5.2-0.9-12.8,5.8-16.6c6.6-3.7,9-12,5.3-18.5
		c-3.7-6.6-12-9-18.5-5.3c-18.2,10.1-25.8,32.1-17.7,51.1c6.4,15.1,22.4,25.1,38.7,24.6c7.5-0.3,13.4-6.6,13.2-14.1
		C160.3,338.9,154,333,146.5,333.2z"/>
	<path class="st0" d="M462,320.1c0-27.7-11.9-53.6-32.1-71.6c19.6-16.7,31.2-41.3,31.2-67.5c0-45.8-35.1-84.5-81.4-88.4
		c0.5-36.9-29.3-69.4-68.7-69.4c-22.5,0-42.5,10.9-55,27.6c-12.5-16.7-32.5-27.6-55-27.6c-39.4,0-69.2,32.5-68.7,69.4
		c-46.4,3.9-81.4,42.6-81.4,88.4c0,26.2,11.5,50.8,31.2,67.5c-20.2,18-32.1,44-32.1,71.6c0,49.9,37.1,88.4,82.5,95
		c-2.7,38.2,26.9,73.7,68.5,73.7c22.5,0,42.5-10.9,55-27.6c12.5,16.7,32.5,27.6,55,27.6c41.5,0,71.2-35.5,68.5-73.7
		C424.9,408.5,462,370.1,462,320.1z M242.4,420.3c0,22.8-18.6,41.3-41.4,41.3c-29.2,0-48.1-28.9-39.2-54.7c3.1-9-3.8-18.4-13.4-18.1
		c-37.2,1.3-71.1-28.3-71.1-68.7c0-24.9,13.6-48,35.4-60.1c9.6-5.3,9.3-19.3-0.5-24.2c-20.6-10.2-34-31.8-34-54.9
		c0-35.7,30.8-65.1,68.2-61c9.6,1.1,17.2-7.9,14.6-17.2c-7.2-26.2,12.5-52.3,39.9-52.3c22.8,0,41.4,18.5,41.4,41.3v41.5h-15
		c-5.7,0-10.8,3.5-12.8,8.9L170,262.2c-3.3,9,3.4,18.5,13,18.4l35.1-0.6l-30.9,89.8c-4.8,14,13,24.4,22.9,13.8l32.3-34.6V420.3z
		 M233.9,318l16.4-47.6c3.1-9-3.7-18.2-13.1-18.1l-34.6,0.6l34.3-92.4h50.8l-17.5,46.1c-3.4,8.9,3.2,18.5,12.8,18.5h37.7L233.9,318z
		 M363.6,388.8c-9.6-0.3-16.5,9.1-13.4,18.1c8.8,25.7-10,54.7-39.2,54.7c-22.8,0-41.4-18.5-41.4-41.3V319.7l92.3-98.9
		c8.1-8.7,1.9-22.9-10-22.9h-49.3l17.5-46.1c3.4-8.9-3.2-18.5-12.8-18.5h-37.7V91.7c0-22.8,18.6-41.3,41.4-41.3
		c27.3,0,47.1,26,39.9,52.3c-2.5,9.3,5.1,18.2,14.6,17.2c37.3-4.1,68.2,25.3,68.2,61c0,23.1-13.3,44.7-34,54.9
		c-9.8,4.9-10.1,18.8-0.5,24.2c21.8,12.1,35.4,35.1,35.4,60.1C434.7,360.2,401.1,390.1,363.6,388.8L363.6,388.8z"/>
</g>
</svg>
