<?xml version="1.0" encoding="utf-8"?>
<!-- Generator: Adobe Illustrator 16.0.0, SVG Export Plug-In . SVG Version: 6.00 Build 0)  -->
<!DOCTYPE svg PUBLIC "-//W3C//DTD SVG 1.1//EN" "http://www.w3.org/Graphics/SVG/1.1/DTD/svg11.dtd">
<svg version="1.1" id="Capa_1" xmlns="http://www.w3.org/2000/svg" xmlns:xlink="http://www.w3.org/1999/xlink" x="0px" y="0px"
	 width="40px" height="24px" viewBox="0 0 40 24" enable-background="new 0 0 40 24" xml:space="preserve">
<g>
	<path fill="#D3255C" d="M29.662,14.259c0,0.73-0.709,1.324-1.582,1.324H11.921c-0.875,0-1.583-0.594-1.583-1.324l0,0
		c0-0.732,0.708-1.325,1.583-1.325H28.08C28.953,12.934,29.662,13.528,29.662,14.259L29.662,14.259z"/>
	<path fill="#D3255C" d="M29.662,18.774c0,0.733-0.709,1.326-1.582,1.326H11.921c-0.875,0-1.583-0.596-1.583-1.326l0,0
		c0-0.73,0.708-1.324,1.583-1.324H28.08C28.953,17.45,29.662,18.042,29.662,18.774L29.662,18.774z"/>
	<path fill="#D3255C" d="M29.662,9.743c0,0.73-0.709,1.324-1.582,1.324H11.921c-0.875,0-1.583-0.594-1.583-1.324l0,0
		c0-0.731,0.708-1.326,1.583-1.326H28.08C28.953,8.417,29.662,9.011,29.662,9.743L29.662,9.743z"/>
	<path fill="#D3255C" d="M29.662,5.226c0,0.73-0.709,1.324-1.582,1.324H11.921c-0.875,0-1.583-0.594-1.583-1.324l0,0
		c0-0.732,0.708-1.326,1.583-1.326H28.08C28.953,3.899,29.662,4.493,29.662,5.226L29.662,5.226z"/>
</g>
</svg>
