<?xml version="1.0" encoding="utf-8"?>
<!-- Generator: Adobe Illustrator 25.4.1, SVG Export Plug-In . SVG Version: 6.00 Build 0)  -->
<svg version="1.1" id="Capa_1" xmlns="http://www.w3.org/2000/svg" xmlns:xlink="http://www.w3.org/1999/xlink" x="0px" y="0px"
	 viewBox="0 0 480 180" style="enable-background:new 0 0 480 180;" xml:space="preserve">
<style type="text/css">
	.st0{fill:#F6BA09;}
	.st1{fill:#FFFFFF;}
	.st2{fill:#3C78BA;}
	.st3{fill:#2C8FC6;}
	.st4{fill:#0A4390;}
	.st5{fill:#7A5399;}
	.st6{fill:#DD398C;}
	.st7{fill:#6A1354;}
	.st8{fill:#B44491;}
	.st9{fill:#1F2671;}
	.st10{fill:#2A206A;}
	.st11{fill:#071252;}
	.st12{fill:#561657;}
	.st13{fill:#4B0530;}
	.st14{fill:#F4B747;}
	.st15{fill:#753C2B;}
	.st16{fill:#D32927;}
	.st17{fill:#650E17;}
	.st18{fill:#AC3128;}
	.st19{fill:#521018;}
	.st20{fill:#6CB86E;}
	.st21{fill:#67841F;}
	.st22{fill:#EAE55F;}
	.st23{fill:#CB3334;}
	.st24{fill:#63A529;}
	.st25{fill:#33BCE5;}
	.st26{fill:#0969B2;}
	.st27{fill:#3AB7B7;}
	.st28{fill:#98C569;}
	.st29{fill:#28A363;}
	.st30{fill:#72BA6D;}
	.st31{fill:#FFD64E;}
	.st32{fill:#ED7451;}
	.st33{fill:#F6B54E;}
	.st34{fill:#0455A5;}
	.st35{fill:#012878;}
</style>
<g>
	<g id="Capa_1_00000018939967702853698690000011763427441300346039_">
		<g>
			<path class="st0" d="M62.7,131L62.7,131L62.7,131z"/>
			<g>
				<g>
					<path class="st0" d="M158.3,76.9c-1.6-2.7-6.2-5.4-11.5-5.4c-6.8,0-10.1,2.8-10.1,6.4c0,4.2,5,5.4,10.9,6.1
						c10.1,1.3,19.6,3.8,19.6,15.5c0,10.9-9.6,15.5-20.4,15.5c-9.9,0-17.5-3.1-21.1-11.9l7.6-3.9c2.1,5.3,7.8,7.7,13.7,7.7
						c5.7,0,11.2-2.1,11.2-7.3c0-4.6-4.8-6.4-11.2-7.2c-10-1.2-19.1-3.9-19.1-14.7c0-10,9.8-14.1,18.8-14.1c7.5,0,15.4,2.1,19.1,9.7
						L158.3,76.9z"/>
					<path class="st0" d="M179.6,69.9c0,6.6-10,6.6-10,0S179.6,63.3,179.6,69.9z M170.4,79.4v34.3h8.5V79.4H170.4z"/>
					<path class="st0" d="M208.9,113.6V95.8c0-5.2-2.8-9.1-8.3-9.1c-5.2,0-8.7,4.4-8.7,9.6v17.4h-8.4V79.4h7.5l0.5,4.6
						c3.5-3.4,6.9-5.1,11.2-5.1c8,0,14.5,6.1,14.5,16.8v18C217.2,113.6,208.9,113.6,208.9,113.6z"/>
					<path class="st0" d="M248.8,76l6.2,4.7l-3.8,4.9c2.7,3,3.6,6.4,3.6,10.1c0,4.2-1.6,10.2-7.2,12.7c5.6,2.8,7.1,6.9,7.1,11.3
						c0,9.4-7.2,15.2-17.1,15.2c-9.9,0-17.4-6.1-17.4-15.2h8.4c0,4.4,4.1,7.4,9,7.4s8.6-2.7,8.6-7.4s-4.4-6.8-8.6-6.8
						c-10.7,0-17.4-6.5-17.4-17.2s7.7-17.3,17.3-17.3c2.7,0,5.5,0.3,7.9,2L248.8,76z M228.6,95.7c0,6,4,9.5,9,9.5
						c4.9,0,8.9-3.6,8.9-9.5s-4-9.7-8.9-9.7C232.6,86.1,228.6,89.8,228.6,95.7z"/>
					<path class="st0" d="M264.4,79.5v17.9c0,5.2,2.8,9.1,8.3,9.1c5.2,0,8.7-4.4,8.7-9.6V79.5h8.4v34.3h-7.5l-0.5-4.6
						c-3.5,3.5-6.8,5.1-11.5,5.1c-8.2,0-14.1-6.2-14.1-16.8v-18H264.4L264.4,79.5z"/>
					<path class="st0" d="M301.5,65.2v48.5h-8.4V65.2H301.5z"/>
					<path class="st0" d="M332.2,79.5h8.1v34.2h-8l-0.4-5c-2,4-7.3,6-11.1,6.1c-10.1,0.1-17.6-6.2-17.6-18.1
						c0-11.8,7.9-18,17.8-17.9c4.6,0,9,2.1,10.9,5.6L332.2,79.5z M311.6,96.5c0,6.5,4.5,10.4,10.1,10.4c13.3,0,13.3-20.7,0-20.7
						C316.2,86.2,311.6,90,311.6,96.5z"/>
					<path class="st0" d="M353.6,79.5l0.6,3.9c2.7-4.2,6.2-4.9,9.7-4.9s6.9,1.4,8.8,3.2l-3.8,7.4c-1.7-1.5-3.3-2.2-6.1-2.2
						c-4.4,0-8.6,2.4-8.6,8.6v18h-8.5V79.4L353.6,79.5L353.6,79.5z"/>
					<path class="st0" d="M383.5,69.9c0,6.6-10,6.6-10,0S383.5,63.3,383.5,69.9z M374.2,79.4v34.3h8.5V79.4H374.2z"/>
					<path class="st0" d="M400.6,69.9v9.7h9.4v7.3h-9.5v14.8c0,3.2,1.8,4.9,4.4,4.9c1.3,0,2.8-0.4,4.1-1l2.4,7.2
						c-2.4,0.9-4.4,1.4-7,1.5c-7.4,0.3-12.3-3.9-12.3-12.5v-15h-6.4v-7.3h6.4v-8.8L400.6,69.9z"/>
					<path class="st0" d="M450.9,79.5L430,128h-9.3l6.4-14.9l-13.7-33.6h9.8l5.2,14.8l3.2,9.7l3.5-9.4l6.2-15L450.9,79.5L450.9,79.5
						z"/>
				</g>
				<g>
					<path class="st0" d="M370.3,131.3h-4v4.2h-2.7l-0.1-14.1c2.2,0,4.4-0.1,6.7-0.1C377.1,121.3,377.2,131.3,370.3,131.3z
						 M366.3,129h4c3.4,0,3.3-5,0-5h-4V129z"/>
					<path class="st0" d="M387.9,135.4l-10.6,0.1c0-4.7-0.1-9.4-0.1-14.1l10.6-0.1v2.6l-8,0.1v3.2l7.6-0.1v2.5l-7.6,0.1v3.2l8-0.1
						L387.9,135.4z"/>
					<path class="st0" d="M402.5,135.3h-3.2l-4.2-4.7h-2.6v4.7h-2.6v-14.1c2.2,0,4.4,0,6.8,0c3.3,0,5.1,2.2,5.1,4.6
						c0,2-0.9,3.9-3.5,4.4l4.3,4.8L402.5,135.3z M392.5,123.7v4.5h4c1.7,0,2.4-1.1,2.4-2.3c0-1.2-0.8-2.2-2.5-2.2H392.5z"/>
					<path class="st0" d="M416.3,121l0.1,8.1c0,4.2-2.5,6.3-6.1,6.3c-3.4,0-6.3-2.1-6.3-6.2l-0.1-8.1h2.7l0.1,8.1
						c0,2.6,1.5,3.8,3.7,3.8s3.4-1.5,3.4-3.9l-0.1-8.1L416.3,121L416.3,121z M413.2,116.6h-2.9l-1.5,2.7v0.1h2.1L413.2,116.6
						L413.2,116.6z"/>
				</g>
			</g>
		</g>
	</g>
	<path class="st1" d="M113.29,93.02c-0.91-1.2-1.89-2.5-2.71-3.96c-0.02-0.18-0.05-0.37-0.11-0.55c-0.12-0.36-0.28-0.64-0.41-0.87
		c-0.02-0.07-0.05-0.14-0.08-0.2c-0.04-0.12-0.09-0.24-0.14-0.35c-0.08-0.16-0.14-0.4-0.21-0.69c-0.03-0.11-0.06-0.23-0.11-0.33
		c-0.04-0.17-0.12-0.46-0.28-0.78c-0.04-0.08-0.09-0.17-0.14-0.25c-0.01-0.18-0.03-0.4-0.1-0.65V77.3c0-0.63,0-1.22,0.07-1.75
		c0.02-0.12,0.03-0.24,0.03-0.35c0-0.45,0-0.66,0.05-0.91c0.09-0.43,0.04-0.86-0.09-1.26c0.02-0.39,0.03-0.74,0.04-1.05
		c0.12-3.33-1.49-8.87-5.29-14.01c-0.05-0.08-0.1-0.16-0.16-0.24c-0.03-0.04-0.07-0.08-0.1-0.12c-0.07-0.09-0.12-0.17-0.19-0.26
		c-0.05-0.07-0.11-0.13-0.17-0.19c-0.01-0.01-0.02-0.03-0.03-0.04l-0.07-0.07c-1.06-1.29-2.41-2.79-4.1-4.19
		c-7.2-5.96-13.97-7.51-15.87-7.84c-0.47-0.08-0.95-0.02-1.38,0.16c-1.31-2.38-3.84-4-6.75-4c-1.96,0-3.75,0.74-5.11,1.95
		c-1.55-0.61-3.23-0.95-4.99-0.95c-1.69,0-3.31,0.32-4.81,0.89c-0.06-2.98-2.5-5.39-5.49-5.39c-2.86,0-5.21,2.19-5.47,4.98
		c-0.7-0.24-1.45-0.38-2.23-0.38c-3.16,0-5.82,2.14-6.64,5.04c-0.92-1.06-2.25-1.74-3.76-1.74c-2.76,0-5,2.24-5,5
		c0,2.32,1.59,4.25,3.73,4.82c-3.48,0.6-6.13,3.64-6.13,7.28c0,4.08,3.32,7.4,7.4,7.4c3.52,0,6.46-2.47,7.21-5.76
		c0.8,1.91,2.69,3.26,4.89,3.26c1.6,0,3.01-0.72,3.99-1.85c-1.03,1.83-1.8,3.82-2.24,5.94c-1.47-1.76-3.68-2.89-6.15-2.89
		c-4.41,0-8,3.59-8,8c0,3.56,2.33,6.57,5.55,7.61c-3.88,1.51-6.65,5.28-6.65,9.69c0,5.73,4.67,10.4,10.4,10.4s10.4-4.67,10.4-10.4
		c0-1.68-0.41-3.25-1.11-4.66c3.48,4.16,8.53,6.95,14.24,7.46c-0.46,0.25-0.9,0.52-1.34,0.8c-1.55-1.01-3.4-1.6-5.38-1.6
		c-5.46,0-9.9,4.44-9.9,9.9c0,3.28,1.61,6.19,4.08,7.99c-0.32,1.59-0.48,3.23-0.48,4.91c0,4.69,1.27,9.22,3.67,13.11
		c0.28,0.46,0.7,0.81,1.2,1.01l0.2,0.08c0.24,0.15,0.5,0.27,0.79,0.34c7.5,1.67,16.9,8.33,16.99,8.39c0.43,0.31,0.94,0.46,1.45,0.46
		c0.45,0,0.91-0.12,1.31-0.37c0.86-0.53,1.31-1.52,1.16-2.51c-0.85-5.51,0.31-9.92,3.06-11.95c0.16-0.07,0.32-0.16,0.47-0.27
		c0.1-0.07,0.36-0.2,0.56-0.29l0.2-0.09c0.11-0.04,0.21-0.08,0.3-0.12c0.04-0.01,0.09-0.01,0.13-0.02c0.17-0.02,0.32-0.05,0.44-0.08
		c0.19-0.01,0.41-0.04,0.66-0.11c0.08-0.01,0.18-0.03,0.27-0.04c0.34-0.02,0.7-0.03,1.08-0.03c1.2,0.02,2.53,0.13,3.77,0.24
		c1.52,0.13,3.05,0.27,4.51,0.26c2.42-0.01,4.64-0.4,6.24-1.85c0.03-0.03,0.06-0.06,0.09-0.08l0.6-0.6
		c0.17-0.17,0.31-0.36,0.42-0.56c0.18-0.29,0.27-0.56,0.33-0.81c1.26-2.51,1.14-5.64,1.06-7.89c-0.01-0.37-0.03-0.82-0.03-1.17
		c0.14-0.09,0.29-0.18,0.45-0.27c0.55-0.32,1.42-0.83,1.94-1.7c0.42-0.51,0.62-1.18,0.55-1.85c0,0,0-0.01,0-0.01
		c0-0.03,0.01-0.06,0-0.09c-0.04-0.32-0.11-0.62-0.21-0.91c0.64-0.85,1.03-1.88,1.03-2.91c0-0.02,0-0.03,0-0.05
		c0-0.02,0-0.03,0-0.05c0-0.59-0.21-1.16-0.58-1.6c-0.01-0.05-0.01-0.12-0.01-0.2c0-0.07,0-0.14,0-0.21
		c0.04-0.02,0.07-0.03,0.11-0.05l0.3-0.15c0.1-0.03,0.2-0.07,0.3-0.1c0.4-0.05,0.77-0.21,1.09-0.43c1.21-0.31,3-0.79,3.87-2.72
		C117.01,97.94,115.2,95.55,113.29,93.02z M43.6,60.62c-0.78-2.68-3.04-4.72-5.83-5.21c1.43-0.38,2.6-1.36,3.23-2.67
		c1.21,2,3.4,3.35,5.91,3.35c1.66,0,3.18-0.59,4.37-1.56c-0.04,0.45-0.07,0.9-0.07,1.36c0,0.64,0.06,1.27,0.15,1.89
		C50.54,57.3,49.61,57,48.6,57C46.27,57,44.3,58.53,43.6,60.62z M53.68,63.73c0.03,0.05,0.07,0.09,0.11,0.14
		c-0.08,0.12-0.18,0.22-0.26,0.34C53.59,64.06,53.63,63.9,53.68,63.73z M47.76,83.95c1.15-0.58,2.14-1.42,2.9-2.45
		c0.52,1.92,1.31,3.73,2.32,5.39C51.59,85.45,49.78,84.41,47.76,83.95z"/>
	<g>
		<path class="st2" d="M110.4,101.1c-0.6,0-1.2-0.1-1.9-0.1c-13.2,0-23.9,10.7-23.9,23.9c0,0.1,0,0.2,0,0.3c0.4-0.3,0.9-0.5,1.3-0.7
			c4.4-1.9,13.6,1.6,16.8-1.3c3.1-2.8,1.1-9.9,2-10.7c1.2-1.1,2.6-1.3,2.6-2.2c0-0.9-1.1-1.8-1.1-1.8c1.1-0.3,1.9-1.5,1.9-2.4
			c-0.8-0.8-0.6-2.3-0.5-3.3C108.6,101.9,109.5,101.4,110.4,101.1z"/>
		<path class="st3" d="M81.1,96.3c-12.5,0-22.6,10.1-22.6,22.6c0,4.3,1.2,8.4,3.3,11.8l0.5,0.2c8.1,1.8,17.9,8.8,17.9,8.8
			c-1.2-7.8,1.3-13.4,5.7-15.3c4.4-1.9,13.6,1.6,16.8-1.3c0.3-0.2,0.5-0.5,0.7-0.8c0.2-1.1,0.3-2.3,0.3-3.5
			C103.8,106.5,93.6,96.3,81.1,96.3z"/>
		<path class="st4" d="M103.4,122.6c0-0.1,0.1-0.1,0.1-0.2c0.2-1.1,0.3-2.3,0.3-3.5c0-5.9-2.3-11.3-6-15.3
			c-7.8,3.9-13.1,12-13.1,21.3c0,0.1,0,0.2,0,0.3c0.2-0.1,0.4-0.3,0.6-0.4s0.5-0.2,0.7-0.3c4.4-1.9,13.6,1.6,16.8-1.3
			c0.2-0.2,0.3-0.3,0.5-0.5C103.3,122.7,103.3,122.7,103.4,122.6z"/>
		<path class="st5" d="M106.6,71.9c0.1-2.7-1.3-8-5.2-13c-0.7-0.2-1.3-0.2-2-0.2C90.3,58.7,83,66,83,75.1s7.3,16.4,16.4,16.4
			c3.1,0,5.9-0.8,8.4-2.3c-0.4-0.7-0.7-1.5-0.9-2.3C105.9,83.8,106.5,75.2,106.6,71.9z"/>
		<path class="st6" d="M101.7,59.3c-1.2-1.5-2.6-3.1-4.3-4.5C91,49.5,85,47.9,82.7,47.5c-4,2.2-6.8,6.5-6.8,11.4
			c0,7.1,5.8,12.9,12.9,12.9C95.8,71.9,101.5,66.3,101.7,59.3z"/>
		<path class="st7" d="M101.4,58.9l-0.1-0.1c-0.6-0.1-1.2-0.1-1.9-0.1c-7.6,0-13.9,5.1-15.8,12.1c1.6,0.7,3.3,1.1,5.2,1.1
			c7,0,12.7-5.6,12.9-12.5C101.6,59.2,101.5,59.1,101.4,58.9z"/>
		<path class="st8" d="M113.5,99.6c1.2-2.6-4.5-6.2-6.6-12.7c-0.8-2.6-0.6-9.1-0.4-13.1c-3.6-2.5-8-3.9-12.7-3.9
			c-12.4,0-22.5,10.1-22.5,22.5s10.1,22.5,22.5,22.5c5.1,0,9.8-1.7,13.6-4.6c-0.1-0.9-1.1-1.8-1.1-1.8c1.1-0.3,1.9-1.5,1.9-2.4
			c-0.8-0.8-0.6-2.3-0.5-3.3C109.9,100.4,112.7,101.4,113.5,99.6z"/>
		<path class="st9" d="M102.9,112.9c-2.6-9.6-11.4-16.6-21.8-16.6c-3.2,0-6.3,0.7-9.1,1.9c2.6,9.6,11.3,16.6,21.7,16.6
			C97,114.9,100.1,114.2,102.9,112.9z"/>
		<path class="st10" d="M107.7,102.9c0.2-0.2,0.4-0.4,0.6-0.6l0.1-0.1c0.2-0.2,0.4-0.3,0.6-0.4c0,0,0,0,0.1,0
			c0.2-0.1,0.4-0.2,0.6-0.3c0,0,0,0,0.1,0c0.2-0.1,0.4-0.2,0.7-0.2l0,0c-0.6,0-1.2-0.1-1.9-0.1c-9.2,0-17.2,5.2-21.2,12.9
			c2,0.6,4.2,0.9,6.4,0.9c5.1,0,9.8-1.7,13.6-4.6c-0.1-0.9-1.1-1.8-1.1-1.8c1.1-0.3,1.9-1.5,1.9-2.4
			C107.4,105.4,107.6,103.8,107.7,102.9z"/>
		<path class="st11" d="M95.9,114.8c0.5,0,1.1-0.1,1.6-0.2c0.1,0,0.2,0,0.4-0.1c0.4-0.1,0.8-0.2,1.2-0.3c0.2,0,0.4-0.1,0.5-0.1
			c0.5-0.1,0.9-0.3,1.3-0.4c0.2-0.1,0.4-0.1,0.6-0.2c0.3-0.1,0.6-0.2,0.9-0.3c0.2-0.1,0.4-0.2,0.6-0.3c-1-3.5-2.8-6.7-5.2-9.3
			c-4.4,2.3-8.1,5.9-10.4,10.3c0.1,0,0.2,0.1,0.3,0.1c0.3,0.1,0.6,0.2,0.9,0.2c0.3,0.1,0.6,0.1,0.9,0.2s0.5,0.1,0.8,0.2
			s0.7,0.1,1.1,0.1c0.2,0,0.5,0.1,0.7,0.1c0.6,0,1.2,0.1,1.8,0.1c0.6,0,1.1,0,1.7-0.1C95.6,114.8,95.7,114.8,95.9,114.8z"/>
		<path class="st12" d="M106.7,86.1c0-0.2-0.1-0.3-0.1-0.5c0-0.1,0-0.2,0-0.3c0-0.2,0-0.3-0.1-0.5c0-0.1,0-0.2,0-0.3
			c0-0.2,0-0.4,0-0.6c0-0.1,0-0.2,0-0.3c0-0.3,0-0.6,0-0.8v-0.1c0-0.3,0-0.7,0-1v-0.1c0-0.3,0-0.6,0-0.9c0-0.1,0-0.2,0-0.3
			c0-0.3,0-0.5,0-0.8c0-0.1,0-0.2,0-0.3c0-0.3,0-0.5,0-0.8c0-0.1,0-0.2,0-0.2c0-0.3,0-0.6,0-0.9v-0.1c0-0.7,0-1.4,0.1-2.1l0,0
			c0-0.5,0-0.9,0.1-1.4c-3.6-2.5-8-3.9-12.7-3.9c-3.8,0-7.4,0.9-10.5,2.6c-0.1,0.9-0.2,1.8-0.2,2.7c0,9.1,7.3,16.4,16.4,16.4
			c3.1,0,5.9-0.8,8.4-2.3l0,0c-0.1-0.3-0.3-0.5-0.4-0.8c0-0.1-0.1-0.2-0.1-0.3c-0.2-0.4-0.3-0.8-0.4-1.2c-0.1-0.2-0.1-0.4-0.2-0.6
			C106.7,86.2,106.7,86.1,106.7,86.1z"/>
		<path class="st13" d="M88.8,71.9c2.5,0,4.8-0.7,6.8-1.9c-0.6,0-1.2-0.1-1.8-0.1c-2.9,0-5.7,0.6-8.3,1.6
			C86.6,71.7,87.7,71.9,88.8,71.9z"/>
		<circle class="st14" cx="70.9" cy="76" r="18.5"/>
		<path class="st15" d="M83,75.1c0,3.9,1.4,7.5,3.7,10.3c1.6-2.8,2.6-6,2.6-9.4c0-3.9-1.2-7.4-3.2-10.4C84.2,68.3,83,71.5,83,75.1z"
			/>
		<path class="st16" d="M88.8,71.9c-1.5-6.6-6.5-11.8-12.9-13.6c0,0.2,0,0.5,0,0.7C75.9,66.1,81.7,71.9,88.8,71.9L88.8,71.9z"/>
		<path class="st17" d="M86.1,65.6c-1.1,1.5-1.9,3.3-2.5,5.2c0.8,0.3,1.6,0.6,2.4,0.8c0,0,0,0,0.1,0c0.4,0.1,0.8,0.1,1.2,0.2
			c0.1,0,0.1,0,0.2,0c0.4,0,0.9,0.1,1.4,0.1l0,0C88.3,69.6,87.4,67.5,86.1,65.6z"/>
		<path class="st18" d="M71.3,92.4c0,0.7,0,1.4,0.1,2c10-0.3,17.9-8.4,17.9-18.4c0-1.9-0.3-3.8-0.8-5.5
			C78.6,72.9,71.3,81.7,71.3,92.4z"/>
		<path class="st19" d="M89.3,76c0-1.9-0.3-3.8-0.8-5.5l0,0c-0.6,0.1-1.1,0.3-1.7,0.5c-0.1,0-0.2,0.1-0.3,0.1
			c-0.5,0.2-0.9,0.3-1.3,0.5c-0.2,0-0.3,0.1-0.4,0.1c-0.5,0.2-1,0.5-1.5,0.7c-0.1,0.9-0.2,1.7-0.2,2.7c0,3.9,1.4,7.5,3.6,10.3
			C88.3,82.6,89.3,79.4,89.3,76z"/>
		<circle class="st20" cx="64.9" cy="55.9" r="11.2"/>
		<path class="st21" d="M57,63.9c2,2,4.8,3.3,7.9,3.3c5.4,0,9.9-3.8,11-8.9c-1.6-0.4-3.2-0.7-5-0.7C65.3,57.5,60.3,60,57,63.9z"/>
		<circle class="st22" cx="75" cy="48.9" r="5.2"/>
		<path class="st23" d="M80.1,49.4c-1.3,1.2-2.4,2.6-3.1,4.2C78.7,52.9,79.9,51.3,80.1,49.4z"/>
		<path class="st24" d="M75.9,54c-0.6-3.3-2.6-6.1-5.4-7.7c-0.4,0.8-0.7,1.7-0.7,2.6c0,2.9,2.3,5.2,5.2,5.2
			C75.3,54.1,75.6,54,75.9,54z"/>
		<circle class="st25" cx="62.3" cy="106" r="7.4"/>
		<path class="st26" d="M59.4,112.7c0.9,0.4,1.9,0.6,3,0.6c4.1,0,7.4-3.3,7.4-7.4c0-2-0.8-3.8-2.1-5.2
			C63.7,103.7,60.8,107.9,59.4,112.7z"/>
		<circle class="st27" cx="45.5" cy="94.1" r="7.9"/>
		<circle class="st28" cx="44.2" cy="76.8" r="5.5"/>
		<circle class="st29" cx="46.9" cy="49.2" r="4.4"/>
		<circle class="st30" cx="48.6" cy="62.3" r="2.8"/>
		<circle class="st31" cx="36.5" cy="62.7" r="4.9"/>
		<circle class="st32" cx="36.5" cy="50.6" r="2.5"/>
		<circle class="st33" cx="54.6" cy="43.2" r="3"/>
		<path class="st34" d="M76.2,115.2c-7.7,0-13.9,6.2-13.9,13.9c0,0.6,0,1.3,0.1,1.9c8.1,1.8,17.9,8.8,17.9,8.8
			c-1.2-7.8,1.3-13.4,5.7-15.3c0.9-0.4,1.9-0.5,3.1-0.6C87,118.9,82,115.2,76.2,115.2z"/>
		<path class="st35" d="M87.1,124.2c0.2,0,0.4-0.1,0.6-0.1c0.1,0,0.2,0,0.4-0.1c0.2,0,0.4,0,0.6-0.1c0.1,0,0.3,0,0.4,0
			c0,0,0,0,0.1,0c-0.8-2-2-3.7-3.6-5.1c-0.5,2-0.8,4-0.8,6.1c0,0.1,0,0.2,0,0.3c0.4-0.3,0.9-0.5,1.3-0.7c0.3-0.1,0.5-0.2,0.8-0.3
			C86.9,124.3,87,124.2,87.1,124.2z"/>
	</g>
</g>
</svg>
