<?xml version="1.0" encoding="utf-8"?>
<!-- Generator: Adobe Illustrator 25.4.1, SVG Export Plug-In . SVG Version: 6.00 Build 0)  -->
<svg version="1.1" id="Capa_1" xmlns="http://www.w3.org/2000/svg" xmlns:xlink="http://www.w3.org/1999/xlink" x="0px" y="0px"
	 viewBox="0 0 480 180" style="enable-background:new 0 0 480 180;" xml:space="preserve">
<style type="text/css">
	.st0{fill:#2C8FC6;}
	.st1{fill:#506AAD;}
	.st2{fill:#CCCBCB;}
	.st3{fill:#3C78BA;}
	.st4{fill:#0A4390;}
	.st5{fill:#7A5399;}
	.st6{fill:#DD398C;}
	.st7{fill:#6A1354;}
	.st8{fill:#B44491;}
	.st9{fill:#1F2671;}
	.st10{fill:#2A206A;}
	.st11{fill:#071252;}
	.st12{fill:#561657;}
	.st13{fill:#4B0530;}
	.st14{fill:#F4B747;}
	.st15{fill:#753C2B;}
	.st16{fill:#D32927;}
	.st17{fill:#650E17;}
	.st18{fill:#AC3128;}
	.st19{fill:#521018;}
	.st20{fill:#6CB86E;}
	.st21{fill:#67841F;}
	.st22{fill:#EAE55F;}
	.st23{fill:#CB3334;}
	.st24{fill:#63A529;}
	.st25{fill:#33BCE5;}
	.st26{fill:#0969B2;}
	.st27{fill:#3AB7B7;}
	.st28{fill:#98C569;}
	.st29{fill:#28A363;}
	.st30{fill:#72BA6D;}
	.st31{fill:#FFD64E;}
	.st32{fill:#ED7451;}
	.st33{fill:#F6B54E;}
	.st34{fill:#0455A5;}
	.st35{fill:#012878;}
</style>
<g id="Capa_1_00000018939967702853698690000011763427441300346039_">
	<path class="st0" d="M61.8,131.3L61.8,131.3L61.8,131.3z"/>
	<g>
		<g>
			<path class="st1" d="M157.4,77.2c-1.6-2.7-6.2-5.4-11.5-5.4c-6.8,0-10.1,2.8-10.1,6.4c0,4.2,5,5.4,10.9,6.1
				c10.1,1.3,19.6,3.8,19.6,15.5c0,10.9-9.6,15.5-20.4,15.5c-9.9,0-17.5-3.1-21.1-11.9l7.6-3.9c2.1,5.3,7.8,7.7,13.7,7.7
				c5.7,0,11.2-2.1,11.2-7.3c0-4.6-4.8-6.4-11.2-7.2c-10-1.2-19.1-3.9-19.1-14.7c0-10,9.8-14.1,18.8-14.1c7.5,0,15.4,2.1,19.1,9.7
				L157.4,77.2z"/>
			<path class="st1" d="M178.7,70.2c0,6.6-10,6.6-10,0S178.7,63.6,178.7,70.2z M169.5,79.7V114h8.5V79.7H169.5z"/>
			<path class="st1" d="M208,113.9V96.1c0-5.2-2.8-9.1-8.3-9.1c-5.2,0-8.7,4.4-8.7,9.6V114h-8.4V79.7h7.5l0.5,4.6
				c3.5-3.4,6.9-5.1,11.2-5.1c8,0,14.5,6.1,14.5,16.8v18C216.3,113.9,208,113.9,208,113.9z"/>
			<path class="st1" d="M247.9,76.3l6.2,4.7l-3.8,4.9c2.7,3,3.6,6.4,3.6,10.1c0,4.2-1.6,10.2-7.2,12.7c5.6,2.8,7.1,6.9,7.1,11.3
				c0,9.4-7.2,15.2-17.1,15.2c-9.9,0-17.4-6.1-17.4-15.2h8.4c0,4.4,4.1,7.4,9,7.4s8.6-2.7,8.6-7.4s-4.4-6.8-8.6-6.8
				c-10.7,0-17.4-6.5-17.4-17.2s7.7-17.3,17.3-17.3c2.7,0,5.5,0.3,7.9,2L247.9,76.3z M227.7,96c0,6,4,9.5,9,9.5
				c4.9,0,8.9-3.6,8.9-9.5s-4-9.7-8.9-9.7C231.7,86.4,227.7,90.1,227.7,96z"/>
			<path class="st1" d="M263.5,79.8v17.9c0,5.2,2.8,9.1,8.3,9.1c5.2,0,8.7-4.4,8.7-9.6V79.8h8.4v34.3h-7.5l-0.5-4.6
				c-3.5,3.5-6.8,5.1-11.5,5.1c-8.2,0-14.1-6.2-14.1-16.8v-18H263.5L263.5,79.8z"/>
			<path class="st1" d="M300.6,65.5V114h-8.4V65.5H300.6z"/>
			<path class="st1" d="M331.3,79.8h8.1V114h-8l-0.4-5c-2,4-7.3,6-11.1,6.1c-10.1,0.1-17.6-6.2-17.6-18.1c0-11.8,7.9-18,17.8-17.9
				c4.6,0,9,2.1,10.9,5.6L331.3,79.8z M310.7,96.8c0,6.5,4.5,10.4,10.1,10.4c13.3,0,13.3-20.7,0-20.7
				C315.3,86.5,310.7,90.3,310.7,96.8z"/>
			<path class="st1" d="M352.7,79.8l0.6,3.9c2.7-4.2,6.2-4.9,9.7-4.9s6.9,1.4,8.8,3.2l-3.8,7.4c-1.7-1.5-3.3-2.2-6.1-2.2
				c-4.4,0-8.6,2.4-8.6,8.6v18h-8.5V79.7L352.7,79.8L352.7,79.8z"/>
			<path class="st1" d="M382.6,70.2c0,6.6-10,6.6-10,0S382.6,63.6,382.6,70.2z M373.3,79.7V114h8.5V79.7H373.3z"/>
			<path class="st1" d="M399.7,70.2v9.7h9.4v7.3h-9.5V102c0,3.2,1.8,4.9,4.4,4.9c1.3,0,2.8-0.4,4.1-1l2.4,7.2
				c-2.4,0.9-4.4,1.4-7,1.5c-7.4,0.3-12.3-3.9-12.3-12.5v-15h-6.4v-7.3h6.4V71L399.7,70.2z"/>
			<path class="st1" d="M450,79.8l-20.9,48.5h-9.3l6.4-14.9l-13.7-33.6h9.8l5.2,14.8l3.2,9.7l3.5-9.4l6.2-15L450,79.8L450,79.8z"/>
		</g>
		<g>
			<path class="st2" d="M369.4,131.6h-4v4.2h-2.7l-0.1-14.1c2.2,0,4.4-0.1,6.7-0.1C376.2,121.6,376.3,131.6,369.4,131.6z
				 M365.4,129.3h4c3.4,0,3.3-5,0-5h-4V129.3z"/>
			<path class="st2" d="M387,135.7l-10.6,0.1c0-4.7-0.1-9.4-0.1-14.1l10.6-0.1v2.6l-8,0.1v3.2l7.6-0.1v2.5l-7.6,0.1v3.2l8-0.1
				L387,135.7z"/>
			<path class="st2" d="M401.6,135.6h-3.2l-4.2-4.7h-2.6v4.7H389v-14.1c2.2,0,4.4,0,6.8,0c3.3,0,5.1,2.2,5.1,4.6
				c0,2-0.9,3.9-3.5,4.4l4.3,4.8L401.6,135.6z M391.6,124v4.5h4c1.7,0,2.4-1.1,2.4-2.3c0-1.2-0.8-2.2-2.5-2.2H391.6z"/>
			<path class="st2" d="M415.4,121.3l0.1,8.1c0,4.2-2.5,6.3-6.1,6.3c-3.4,0-6.3-2.1-6.3-6.2l-0.1-8.1h2.7l0.1,8.1
				c0,2.6,1.5,3.8,3.7,3.8s3.4-1.5,3.4-3.9l-0.1-8.1L415.4,121.3L415.4,121.3z M412.3,116.9h-2.9l-1.5,2.7v0.1h2.1L412.3,116.9
				L412.3,116.9z"/>
		</g>
	</g>
</g>
<g>
	<path class="st3" d="M109.5,101.4c-0.6,0-1.2-0.1-1.9-0.1c-13.2,0-23.9,10.7-23.9,23.9c0,0.1,0,0.2,0,0.3c0.4-0.3,0.9-0.5,1.3-0.7
		c4.4-1.9,13.6,1.6,16.8-1.3c3.1-2.8,1.1-9.9,2-10.7c1.2-1.1,2.6-1.3,2.6-2.2c0-0.9-1.1-1.8-1.1-1.8c1.1-0.3,1.9-1.5,1.9-2.4
		c-0.8-0.8-0.6-2.3-0.5-3.3C107.7,102.2,108.6,101.7,109.5,101.4z"/>
	<path class="st0" d="M80.2,96.6c-12.5,0-22.6,10.1-22.6,22.6c0,4.3,1.2,8.4,3.3,11.8l0.5,0.2c8.1,1.8,17.9,8.8,17.9,8.8
		c-1.2-7.8,1.3-13.4,5.7-15.3c4.4-1.9,13.6,1.6,16.8-1.3c0.3-0.2,0.5-0.5,0.7-0.8c0.2-1.1,0.3-2.3,0.3-3.5
		C102.9,106.8,92.7,96.6,80.2,96.6z"/>
	<path class="st4" d="M102.5,122.9c0-0.1,0.1-0.1,0.1-0.2c0.2-1.1,0.3-2.3,0.3-3.5c0-5.9-2.3-11.3-6-15.3
		c-7.8,3.9-13.1,12-13.1,21.3c0,0.1,0,0.2,0,0.3c0.2-0.1,0.4-0.3,0.6-0.4c0.2-0.1,0.5-0.2,0.7-0.3c4.4-1.9,13.6,1.6,16.8-1.3
		c0.2-0.2,0.3-0.3,0.5-0.5C102.4,123,102.4,123,102.5,122.9z"/>
	<path class="st5" d="M105.7,72.2c0.1-2.7-1.3-8-5.2-13C99.8,59,99.2,59,98.5,59c-9.1,0-16.4,7.3-16.4,16.4s7.3,16.4,16.4,16.4
		c3.1,0,5.9-0.8,8.4-2.3c-0.4-0.7-0.7-1.5-0.9-2.3C105,84.1,105.6,75.5,105.7,72.2z"/>
	<path class="st6" d="M100.8,59.6c-1.2-1.5-2.6-3.1-4.3-4.5c-6.4-5.3-12.4-6.9-14.7-7.3C77.8,50,75,54.3,75,59.2
		c0,7.1,5.8,12.9,12.9,12.9C94.9,72.2,100.6,66.6,100.8,59.6z"/>
	<path class="st7" d="M100.5,59.2c0,0-0.1-0.1-0.1-0.1C99.8,59,99.2,59,98.5,59c-7.6,0-13.9,5.1-15.8,12.1c1.6,0.7,3.3,1.1,5.2,1.1
		c7,0,12.7-5.6,12.9-12.5C100.7,59.5,100.6,59.4,100.5,59.2z"/>
	<path class="st8" d="M112.6,99.9c1.2-2.6-4.5-6.2-6.6-12.7c-0.8-2.6-0.6-9.1-0.4-13.1c-3.6-2.5-8-3.9-12.7-3.9
		c-12.4,0-22.5,10.1-22.5,22.5s10.1,22.5,22.5,22.5c5.1,0,9.8-1.7,13.6-4.6c-0.1-0.9-1.1-1.8-1.1-1.8c1.1-0.3,1.9-1.5,1.9-2.4
		c-0.8-0.8-0.6-2.3-0.5-3.3C109,100.7,111.8,101.7,112.6,99.9z"/>
	<path class="st9" d="M102,113.2c-2.6-9.6-11.4-16.6-21.8-16.6c-3.2,0-6.3,0.7-9.1,1.9c2.6,9.6,11.3,16.6,21.7,16.6
		C96.1,115.2,99.2,114.5,102,113.2z"/>
	<path class="st10" d="M106.8,103.2c0.2-0.2,0.4-0.4,0.6-0.6c0,0,0.1-0.1,0.1-0.1c0.2-0.2,0.4-0.3,0.6-0.4c0,0,0,0,0.1,0
		c0.2-0.1,0.4-0.2,0.6-0.3c0,0,0,0,0.1,0c0.2-0.1,0.4-0.2,0.7-0.2c0,0,0,0,0,0c-0.6,0-1.2-0.1-1.9-0.1c-9.2,0-17.2,5.2-21.2,12.9
		c2,0.6,4.2,0.9,6.4,0.9c5.1,0,9.8-1.7,13.6-4.6c-0.1-0.9-1.1-1.8-1.1-1.8c1.1-0.3,1.9-1.5,1.9-2.4
		C106.5,105.7,106.7,104.1,106.8,103.2z"/>
	<path class="st11" d="M95,115.1c0.5,0,1.1-0.1,1.6-0.2c0.1,0,0.2,0,0.4-0.1c0.4-0.1,0.8-0.2,1.2-0.3c0.2,0,0.4-0.1,0.5-0.1
		c0.5-0.1,0.9-0.3,1.3-0.4c0.2-0.1,0.4-0.1,0.6-0.2c0.3-0.1,0.6-0.2,0.9-0.3c0.2-0.1,0.4-0.2,0.6-0.3c-1-3.5-2.8-6.7-5.2-9.3
		c-4.4,2.3-8.1,5.9-10.4,10.3c0.1,0,0.2,0.1,0.3,0.1c0.3,0.1,0.6,0.2,0.9,0.2c0.3,0.1,0.6,0.1,0.9,0.2c0.3,0.1,0.5,0.1,0.8,0.2
		c0.3,0.1,0.7,0.1,1.1,0.1c0.2,0,0.5,0.1,0.7,0.1c0.6,0,1.2,0.1,1.8,0.1c0.6,0,1.1,0,1.7-0.1C94.7,115.1,94.8,115.1,95,115.1z"/>
	<path class="st12" d="M105.8,86.4c0-0.2-0.1-0.3-0.1-0.5c0-0.1,0-0.2,0-0.3c0-0.2,0-0.3-0.1-0.5c0-0.1,0-0.2,0-0.3
		c0-0.2,0-0.4,0-0.6c0-0.1,0-0.2,0-0.3c0-0.3,0-0.6,0-0.8c0,0,0-0.1,0-0.1c0-0.3,0-0.7,0-1c0,0,0-0.1,0-0.1c0-0.3,0-0.6,0-0.9
		c0-0.1,0-0.2,0-0.3c0-0.3,0-0.5,0-0.8c0-0.1,0-0.2,0-0.3c0-0.3,0-0.5,0-0.8c0-0.1,0-0.2,0-0.2c0-0.3,0-0.6,0-0.9c0,0,0-0.1,0-0.1
		c0-0.7,0-1.4,0.1-2.1c0,0,0,0,0,0c0-0.5,0-0.9,0.1-1.4c-3.6-2.5-8-3.9-12.7-3.9c-3.8,0-7.4,0.9-10.5,2.6c-0.1,0.9-0.2,1.8-0.2,2.7
		c0,9.1,7.3,16.4,16.4,16.4c3.1,0,5.9-0.8,8.4-2.3c0,0,0,0,0,0c-0.1-0.3-0.3-0.5-0.4-0.8c0-0.1-0.1-0.2-0.1-0.3
		c-0.2-0.4-0.3-0.8-0.4-1.2c-0.1-0.2-0.1-0.4-0.2-0.6C105.8,86.5,105.8,86.4,105.8,86.4z"/>
	<path class="st13" d="M87.9,72.2c2.5,0,4.8-0.7,6.8-1.9c-0.6,0-1.2-0.1-1.8-0.1c-2.9,0-5.7,0.6-8.3,1.6
		C85.7,72,86.8,72.2,87.9,72.2z"/>
	<circle class="st14" cx="70" cy="76.3" r="18.5"/>
	<path class="st15" d="M82.1,75.4c0,3.9,1.4,7.5,3.7,10.3c1.6-2.8,2.6-6,2.6-9.4c0-3.9-1.2-7.4-3.2-10.4
		C83.3,68.6,82.1,71.8,82.1,75.4z"/>
	<path class="st16" d="M87.9,72.2c-1.5-6.6-6.5-11.8-12.9-13.6c0,0.2,0,0.5,0,0.7C75,66.4,80.8,72.2,87.9,72.2
		C87.9,72.2,87.9,72.2,87.9,72.2z"/>
	<path class="st17" d="M85.2,65.9c-1.1,1.5-1.9,3.3-2.5,5.2c0.8,0.3,1.6,0.6,2.4,0.8c0,0,0,0,0.1,0c0.4,0.1,0.8,0.1,1.2,0.2
		c0.1,0,0.1,0,0.2,0c0.4,0,0.9,0.1,1.4,0.1c0,0,0,0,0,0C87.4,69.9,86.5,67.8,85.2,65.9z"/>
	<path class="st18" d="M70.4,92.7c0,0.7,0,1.4,0.1,2c10-0.3,17.9-8.4,17.9-18.4c0-1.9-0.3-3.8-0.8-5.5C77.7,73.2,70.4,82,70.4,92.7z
		"/>
	<path class="st19" d="M88.4,76.3c0-1.9-0.3-3.8-0.8-5.5c0,0,0,0,0,0c-0.6,0.1-1.1,0.3-1.7,0.5c-0.1,0-0.2,0.1-0.3,0.1
		c-0.5,0.2-0.9,0.3-1.3,0.5C84.1,71.9,84,72,83.9,72c-0.5,0.2-1,0.5-1.5,0.7c-0.1,0.9-0.2,1.7-0.2,2.7c0,3.9,1.4,7.5,3.6,10.3
		C87.4,82.9,88.4,79.7,88.4,76.3z"/>
	<circle class="st20" cx="64" cy="56.2" r="11.2"/>
	<path class="st21" d="M56.1,64.2c2,2,4.8,3.3,7.9,3.3c5.4,0,9.9-3.8,11-8.9c-1.6-0.4-3.2-0.7-5-0.7C64.4,57.8,59.4,60.3,56.1,64.2z
		"/>
	<circle class="st22" cx="74.1" cy="49.2" r="5.2"/>
	<path class="st23" d="M79.2,49.7c-1.3,1.2-2.4,2.6-3.1,4.2C77.8,53.2,79,51.6,79.2,49.7z"/>
	<path class="st24" d="M75,54.3c-0.6-3.3-2.6-6.1-5.4-7.7c-0.4,0.8-0.7,1.7-0.7,2.6c0,2.9,2.3,5.2,5.2,5.2
		C74.4,54.4,74.7,54.3,75,54.3z"/>
	<circle class="st25" cx="61.4" cy="106.3" r="7.4"/>
	<path class="st26" d="M58.5,113c0.9,0.4,1.9,0.6,3,0.6c4.1,0,7.4-3.3,7.4-7.4c0-2-0.8-3.8-2.1-5.2C62.8,104,59.9,108.2,58.5,113z"
		/>
	<circle class="st27" cx="44.6" cy="94.4" r="7.9"/>
	<circle class="st28" cx="43.3" cy="77.1" r="5.5"/>
	<circle class="st29" cx="46" cy="49.5" r="4.4"/>
	<circle class="st30" cx="47.7" cy="62.6" r="2.8"/>
	<circle class="st31" cx="35.6" cy="63" r="4.9"/>
	<circle class="st32" cx="35.6" cy="50.9" r="2.5"/>
	<circle class="st33" cx="53.7" cy="43.5" r="3"/>
	<path class="st34" d="M75.3,115.5c-7.7,0-13.9,6.2-13.9,13.9c0,0.6,0,1.3,0.1,1.9c8.1,1.8,17.9,8.8,17.9,8.8
		c-1.2-7.8,1.3-13.4,5.7-15.3c0.9-0.4,1.9-0.5,3.1-0.6C86.1,119.2,81.1,115.5,75.3,115.5z"/>
	<path class="st35" d="M86.2,124.5c0.2,0,0.4-0.1,0.6-0.1c0.1,0,0.2,0,0.4-0.1c0.2,0,0.4,0,0.6-0.1c0.1,0,0.3,0,0.4,0c0,0,0,0,0.1,0
		c-0.8-2-2-3.7-3.6-5.1c-0.5,2-0.8,4-0.8,6.1c0,0.1,0,0.2,0,0.3c0.4-0.3,0.9-0.5,1.3-0.7c0.3-0.1,0.5-0.2,0.8-0.3
		C86,124.6,86.1,124.5,86.2,124.5z"/>
</g>
</svg>
