<?xml version="1.0" encoding="utf-8"?>
<!-- Generator: Adobe Illustrator 24.0.2, SVG Export Plug-In . SVG Version: 6.00 Build 0)  -->
<svg version="1.1" id="Capa_1" xmlns="http://www.w3.org/2000/svg" xmlns:xlink="http://www.w3.org/1999/xlink" x="0px" y="0px"
	 viewBox="0 0 500 120" style="enable-background:new 0 0 500 120;" xml:space="preserve">
<style type="text/css">
	.st0{fill:#FFFFFF;}
	.st1{opacity:0.15;fill:#FFFFFF;enable-background:new    ;}
</style>
<g>
	<path class="st0" d="M144.8,36.2c-1.9-3.2-7.3-6.3-13.5-6.3c-7.9,0-11.8,3.3-11.8,7.5c0,4.9,5.8,6.3,12.7,7.1
		C144,46,155.1,49,155.1,62.6c0,12.7-11.2,18.1-23.8,18.1c-11.6,0-20.5-3.6-24.7-13.9l8.9-4.6c2.5,6.2,9.1,9,16,9
		c6.7,0,13.1-2.4,13.1-8.5c0-5.4-5.6-7.5-13.1-8.4c-11.6-1.4-22.3-4.5-22.3-17.2c0-11.7,11.5-16.5,22-16.5c8.8,0,18,2.5,22.3,11.3
		L144.8,36.2z"/>
	<path class="st0" d="M169.7,28c0,7.7-11.7,7.7-11.7,0S169.7,20.3,169.7,28z M158.9,39.1v40.1h9.9V39.1H158.9z"/>
	<path class="st0" d="M204,79.2V58.3c0-6.1-3.3-10.7-9.7-10.7c-6.1,0-10.2,5.1-10.2,11.2v20.4h-9.8v-40h8.8l0.6,5.4
		c4.1-4,8.1-6,13.1-6c9.4,0,16.9,7.1,16.9,19.6v21C213.7,79.2,204,79.2,204,79.2z"/>
	<path class="st0" d="M250.6,35.2l7.3,5.5l-4.5,5.7c3.1,3.5,4.2,7.5,4.2,11.8c0,4.9-1.9,11.9-8.4,14.9c6.6,3.3,8.3,8.1,8.3,13.2
		c0,11-8.4,17.8-20,17.8s-20.3-7.1-20.3-17.8h9.8c0,5.2,4.8,8.6,10.5,8.6s10.1-3.1,10.1-8.6s-5.2-8-10.1-8
		c-12.5,0-20.3-7.6-20.3-20.1s9-20.2,20.2-20.2c3.2,0,6.4,0.4,9.2,2.3L250.6,35.2z M227,58.2c0,7,4.7,11.1,10.5,11.1
		c5.7,0,10.4-4.2,10.4-11.1s-4.7-11.3-10.4-11.3C231.7,47,227,51.3,227,58.2z"/>
	<path class="st0" d="M268.9,39.3v20.9c0,6.1,3.3,10.7,9.7,10.7c6.1,0,10.2-5.1,10.2-11.2V39.3h9.8v40.1h-8.8l-0.6-5.4
		c-4.1,4.1-7.9,6-13.5,6c-9.6,0-16.5-7.2-16.5-19.6v-21L268.9,39.3L268.9,39.3z"/>
	<path class="st0" d="M312.2,22.5v56.7h-9.8V22.5H312.2z"/>
	<path class="st0" d="M348.1,39.3h9.5v40h-9.3l-0.5-5.8c-2.3,4.7-8.5,7-13,7.1c-11.8,0.1-20.6-7.2-20.6-21.2
		c0-13.8,9.2-21,20.8-20.9c5.4,0,10.5,2.5,12.7,6.5L348.1,39.3z M324.1,59.2c0,7.6,5.3,12.2,11.8,12.2c15.6,0,15.6-24.2,0-24.2
		C329.4,47.1,324.1,51.6,324.1,59.2z"/>
	<path class="st0" d="M373.2,39.3l0.7,4.6c3.1-4.9,7.2-5.7,11.3-5.7c4.1,0,8.1,1.6,10.3,3.8l-4.5,8.6c-2-1.7-3.9-2.6-7.1-2.6
		c-5.2,0-10,2.8-10,10.1v21.1H364v-40h9.2V39.3z"/>
	<path class="st0" d="M408.1,28c0,7.7-11.7,7.7-11.7,0S408.1,20.3,408.1,28z M397.3,39.1v40.1h9.9V39.1H397.3z"/>
	<path class="st0" d="M428.1,28v11.4h11v8.5H428v17.3c0,3.8,2.1,5.7,5.2,5.7c1.5,0,3.3-0.5,4.8-1.2l2.8,8.4
		c-2.8,1.1-5.2,1.6-8.2,1.7c-8.7,0.3-14.4-4.6-14.4-14.6V47.8h-7.5v-8.5h7.5V29L428.1,28z"/>
	<path class="st0" d="M487,39.3L462.6,96h-10.9l7.5-17.4l-16-39.3h11.5l6.1,17.3l3.8,11.3l4.1-11l7.3-17.5h11V39.3z"/>
</g>
<g>
	<path class="st0" d="M392.7,99.9H388v4.9h-3.1l-0.1-16.5c2.6,0,5.2-0.1,7.8-0.1C400.7,88.1,400.8,99.8,392.7,99.9z M388,97.1h4.7
		c4,0,3.9-5.9,0-5.9H388V97.1z"/>
	<path class="st0" d="M413.3,104.6l-12.4,0.1c0-5.5-0.1-11-0.1-16.5l12.4-0.1v3l-9.3,0.1V95l8.9-0.1v2.9l-8.9,0.1v3.7l9.3-0.1
		L413.3,104.6z"/>
	<path class="st0" d="M430.3,104.5h-3.7l-4.9-5.5h-3v5.5h-3.1l0-16.5c2.6,0,5.2,0,7.9,0c3.9,0,6,2.6,6,5.4c0,2.3-1,4.6-4.1,5.2
		l5,5.6L430.3,104.5z M418.7,90.9v5.3h4.7c2,0,2.8-1.3,2.8-2.7s-0.9-2.6-2.9-2.6L418.7,90.9z"/>
	<path class="st0" d="M446.5,87.8l0.1,9.5c0,4.9-2.9,7.4-7.1,7.4c-4,0-7.4-2.4-7.4-7.3l-0.1-9.5h3.1l0.1,9.5c0,3,1.7,4.5,4.3,4.5
		c2.6,0,4-1.8,4-4.6l-0.1-9.5H446.5z M442.9,82.6h-3.4l-1.7,3.2v0.1h2.5L442.9,82.6L442.9,82.6z"/>
</g>
<g>
	<path class="st1" d="M47.7,12.1c-1,0.1-1.8,0.3-2.3,0.2c-0.8-0.1-3.1,0.1-4.1,1.2s-3.2,1.5-2.9,2.9s1.2,1.5,2.5,1.8s2.8-0.7,3.2,0
		s0,2.2,0.4,2.7s1.9,1,2.3,1.8c0.5,0.7,1.8,0.7,2.1,1.9c0.4,1.2,0.5,6,0.9,6.8c0.5,0.8,0.1,1.8,0.6,2.4c0.5,0.7,3.4,2.6,4.3,2.6
		c0.8,0,0-2.3,0.9-3.5s3.6-2,5.6-2.5c2-0.6,3.1-1.5,4.7-2.4s3.8-1.5,3.5-2.9s-0.7-1.4-0.5-2.1c0.3-0.7,0.7-0.5,1.3-1.8
		c0.6-1.3,1.3-1.8,0.6-3.5c-0.7-1.8-1.4-2.8-1.4-2.8c-0.3-0.4-0.8-0.7-1.4-1.1C62.5,12.6,56.9,12,51.3,12C50.1,12,48.9,12,47.7,12.1
		z"/>
	<path class="st1" d="M33.4,44c-0.3-0.5-0.5-1.2-0.3-2.7c0.2-2.4,1.1-2.5,2.3-3.9c1.2-1.3,1.8-5.7,1.6-6.6c-0.1-0.8-0.6,0.6-0.9,0.9
		c-0.3,0.4-1-0.5-1.4-2.2s-1-0.9-2.2-1.6s-2.7,0.6-3.2-0.3c-0.6-0.9-1.7-1.8-2.8-2.3c-0.5-0.2-1.7-0.7-2.9-1
		c-2.4,3.5-4.7,7.3-6.9,11.5c-0.4,0.7-0.8,1.5-1.1,2.3c0.3,0.5,0.6,1.1,0.8,1.6c0.3,0.9,0.9,1.1,1.5,1.5c0.6,0.5,0.1,3.4,0,6
		c3.2,0.5,3.7,9.6,10.1,3C29.5,48.7,31.4,46.3,33.4,44z"/>
	<path class="st1" d="M44.7,25.5c-0.3,0.1-0.6,0.4-0.8,0.5c-0.2,0.2-0.6,0.1-0.6,0.4s0,0.7,0.3,0.7c0.3,0.1,0.5,0.3,1.2,0.2
		c0.7-0.2,1.3-0.3,1.7,0c0.3,0.3,0.6,0.3,0.9,0.7c0.3,0.4,0.9,0.7,1,1.1c0.1,0.5-0.5,0.9-0.3,1.2c0.3,0.3,1.2,0.3,1.4,0.6
		c0.2,0.3,0.3,0.8,0.6,0.9c0.1,0,0.2,0,0.4,0.1c0.3,0,0.6-0.2,0.7-0.5c0.1-0.3,0-0.9-0.4-1c-0.4-0.2-0.7-0.6-0.6-0.7
		c0.1-0.1,1.4,0.3,1.5,0c0.2-0.3-0.1-1-0.4-1.1s-0.8-0.5-1.3-0.8s-0.8-1.5-1.3-1.5S48.3,27.2,48,27c-0.3-0.1-0.7-0.9-0.9-1.1
		c-0.2-0.3-0.4-0.3-0.8-0.4C46,25.5,45,25.5,44.7,25.5z"/>
	<path class="st1" d="M94.1,59.9c-1.7-2.4-2.6-6.4-0.4-9.2c2.1-2.8,1.4-7.3,1.4-7.3c-0.2-6.8-3.8-11-5.3-11.7
		c-1.5-0.8-5.2-1.5-6.9-0.9c-1.7,0.6-4.7,0.4-5.8,1.6c-1.1,1.1-1.8,1.2-2.9,1.7s-2.4,0.7-2,2.2c0.3,1.5,1.8,2.6,1.3,3.8
		s-0.9,2.1,0.2,3c1.2,0.9-0.1,2.6,1.7,2.5c1.7-0.1,3.4-0.4,3.6-1.9c0.3-1.5,1.2-3.6,1.6-4.8c0.4-1.3-0.1-1.9,1.1-2.2
		s1.9-0.8,2.8-0.3c0.8,0.5,1.6-0.3,1.2,1.2c-0.4,1.6-1.7,1.9-2.3,3.2c-0.6,1.3-1.7,2.5-0.7,3c0.9,0.6,2.1,0.4,2.1,1.2
		c0.1,0.7,0.7,1.4-0.4,1.7s-2-0.2-2.6,0.2c-0.7,0.4-1.6,1.8-1.6,1.8s-1.3,1.4-2.9,0.7c-0.5-0.2-1.3-0.4-2-0.6
		c5.1,6.4,13.8,8.5,19.1,17.3C94.7,63.2,94.7,60.7,94.1,59.9z"/>
	<path class="st0" d="M27.3,81.6c-1-0.9-1.9-1.8-2.9-2.8c-0.9-1-1.9-1.9-2.7-3.1L20.5,74c-0.4-0.5-0.7-1.1-1.1-1.7l-1.1-1.7
		c-0.4-0.6-0.6-1.2-0.9-1.8c-2.5-4.9-3.9-10.3-4.3-15.8c-0.4-5.5,0.4-11.2,2.3-16.4c1.9-5.3,4.9-10.2,8.9-14.3
		c0.9-1,1.8-1.9,2.9-2.9c1-1,2-2,3.2-2.8l1.7-1.3c0.6-0.4,1.2-0.8,1.8-1.2l1.8-1.1c0.6-0.4,1.3-0.6,1.9-1c5.1-2.5,10.8-3.8,16.5-4
		s11.5,0.8,16.8,3c5.3,2,10.1,5.3,14.1,9.4c0.9,1,1.9,1.9,2.8,3s1.9,2.1,2.7,3.3l1.2,1.7c0.4,0.6,0.7,1.2,1.1,1.8l1,1.8
		c0.3,0.6,0.6,1.3,0.9,1.9c2.3,5.1,3.5,10.8,3.5,16.3c0,5.6-1.1,11.1-3.2,16.2c-2.2,5.1-5.4,9.7-9.3,13.5c-1,0.9-1.9,1.8-3,2.7
		c-1,0.9-2,1.8-3.2,2.6l-1.7,1.2c-0.5,0.4-1.2,0.7-1.8,1l-1.8,1c-0.6,0.3-1.2,0.6-1.8,0.8c-4.9,2.2-10.3,3.4-15.7,3.5
		C51.3,93,46,92,40.9,90.1C35.9,88.3,31.2,85.3,27.3,81.6z M28.4,80.5c3.6,3.8,8,6.8,12.9,8.8s10.2,2.9,15.4,2.6
		c5.3-0.3,10.4-1.6,15.1-3.9c0.6-0.3,1.2-0.5,1.7-0.9l1.7-1c0.5-0.4,1.1-0.6,1.6-1.1l1.5-1.2c1.1-0.7,2-1.7,2.9-2.6
		c1-0.9,1.9-1.8,2.8-2.8c3.6-3.8,6.3-8.2,8-13s2.5-10,2.1-15c-0.3-5-1.7-10-3.9-14.5c-0.3-0.6-0.5-1.1-0.9-1.7l-1-1.6
		c-0.3-0.5-0.6-1.1-1-1.6l-1.1-1.5c-0.7-1-1.6-1.9-2.5-2.8c-0.8-0.9-1.8-1.8-2.7-2.8c-7.1-7-17-10.7-26.9-10.3
		c-4.9,0.1-9.8,1.3-14.3,3.3c-0.6,0.3-1.1,0.5-1.7,0.8l-1.6,0.9c-0.5,0.3-1.1,0.6-1.6,1l-1.5,1.1c-1,0.7-2,1.5-2.9,2.3
		s-1.9,1.7-2.9,2.6C24,29,21,33.2,19.1,37.8c-2,4.6-3.1,9.7-3.1,14.8s1.1,10.2,3.1,15c0.3,0.6,0.5,1.2,0.8,1.8l0.9,1.7
		c0.3,0.6,0.6,1.2,1,1.7l1.1,1.6c0.7,1.1,1.6,2.1,2.4,3C26.5,78.6,27.4,79.6,28.4,80.5z"/>
	<path class="st0" d="M64.1,83.3c-0.2,0.9-4,1.6-8.7,1.6s-8.5-0.7-8.7-1.6c-5.9,0.4-10,1-10,1.8c0,1.1,8.5,2.1,18.9,2.1
		s18.9-0.9,18.9-2.1C74.4,84.4,70.2,83.7,64.1,83.3z"/>
	<path class="st0" d="M55.2,16.7c-3,0-5.5,2.5-5.5,5.5c0,2.4,1.6,4.6,3.9,5.3v55.2c0,1,0.8,1.8,1.8,1.8s1.8-0.8,1.8-1.8V27.3
		c2.1-0.8,3.5-2.8,3.5-5.1C60.7,19.2,58.3,16.7,55.2,16.7z M57.2,22.2c0,1.1-0.9,1.9-1.9,1.9c-1.1,0-1.9-0.9-1.9-1.9
		s0.9-1.9,1.9-1.9C56.3,20.3,57.2,21.1,57.2,22.2z"/>
	<path class="st0" d="M63.9,33.4c-3,0-5.5,2.5-5.5,5.5c0,2.4,1.6,4.6,3.9,5.3v5.7l-8.8,6.2c-0.6,0.5-1.1,1.3-1.3,2.1
		c-0.2,0.9,0,2.2,0.7,2.9l0.8,0.9c0,0-0.1-1.1,2.1-3.2l9.5-6.7c0.4-0.3,0.6-0.8,0.6-1.3V44c2.1-0.8,3.5-2.8,3.5-5.1
		C69.4,35.8,66.9,33.4,63.9,33.4z M63.9,36.9c1.1,0,1.9,0.9,1.9,1.9c0,1.1-0.9,1.9-1.9,1.9c-1.1,0-1.9-0.9-1.9-1.9
		C61.9,37.8,62.8,36.9,63.9,36.9z"/>
	<path class="st0" d="M55.8,58.6c-0.2,0.2-0.4,0.4-0.6,0.6l-0.1,0.1c-0.2,0.2-0.3,0.3-0.4,0.5l-0.1,0.1c-0.1,0.1-0.2,0.3-0.3,0.4
		c0,0,0,0,0,0.1c-0.1,0.1-0.1,0.2-0.2,0.3c0,0,0,0,0,0.1C54,60.9,54,61,54,61.1c0,0,0,0,0,0.1s-0.1,0.2-0.1,0.2l0,0
		c0,0.1,0,0.1,0,0.2l0,0c0,0.1,0,0.1,0,0.1l0,0V62c0.2-0.4,0.2-1.2,3.6-3.1v-1.3L55.8,58.6z"/>
	<path class="st0" d="M71.5,49.1c-3,0-5.5,2.5-5.5,5.5c0,2.4,1.6,4.6,3.9,5.3v2.4L53.4,76.6c-0.6,0.5-1.1,1.3-1.3,2.1
		c-0.2,0.9,0,2.2,0.7,2.9l0.8,0.9c0,0-0.1-1.1,2.1-3.2l17.1-15c0.4-0.3,0.6-0.8,0.6-1.3v-3.3c2.1-0.8,3.5-2.8,3.5-5.1
		C77,51.5,74.5,49.1,71.5,49.1z M71.5,52.6c1.1,0,1.9,0.9,1.9,1.9c0,1.1-0.9,1.9-1.9,1.9c-1.1,0-1.9-0.9-1.9-1.9
		C69.5,53.5,70.4,52.6,71.5,52.6z"/>
	<path class="st0" d="M55.8,79.3c-1.9,1.8-2.1,2.8-2.1,3.1v0.3c0.2-0.4,0.2-1.2,3.6-3.1v-1.5L55.8,79.3z"/>
	<path class="st0" d="M34.5,46.2c0,2.3,1.4,4.3,3.5,5.1v2.3c0,0.5,0.2,1,0.6,1.3l16.5,14.4c2.2,2.1,2.1,3.2,2.1,3.2l0.8-0.9
		c0.6-0.7,0.8-2,0.7-2.9c-0.2-0.8-0.6-1.6-1.3-2.1L41.6,52.8v-1.3c2.3-0.7,3.9-2.8,3.9-5.3c0-3-2.5-5.5-5.5-5.5
		C36.9,40.7,34.5,43.2,34.5,46.2z M41.9,46.2c0,1.1-0.9,1.9-1.9,1.9c-1.1,0-1.9-0.9-1.9-1.9c0-1.1,0.9-1.9,1.9-1.9
		S41.9,45.1,41.9,46.2z"/>
	<path class="st0" d="M55.1,69.3L53.6,68v1.5c3.4,1.9,3.4,2.7,3.6,3.1v-0.3C57.2,72.1,57,71.1,55.1,69.3z"/>
	<path class="st0" d="M41.5,31.4c0,2.3,1.4,4.3,3.5,5.1v4.7c0,0.5,0.2,1,0.6,1.3l9.5,6.2c2.2,1.6,2.1,3.2,2.1,3.2L58,51
		c0.6-0.7,0.8-2,0.7-2.9c-0.2-0.8-0.6-1.5-1.3-2l-8.9-5.8v-3.8c2.3-0.7,3.9-2.8,3.9-5.3c0-3-2.5-5.5-5.5-5.5S41.5,28.4,41.5,31.4z
		 M48.9,31.4c0,1.1-0.9,1.9-1.9,1.9c-1.1,0-1.9-0.9-1.9-1.9s0.9-1.9,1.9-1.9S48.9,30.4,48.9,31.4z"/>
	<path class="st0" d="M55.1,48.9l-1.4-1v1.2c3.4,1.9,3.4,2.7,3.6,3.1V52C57.2,51.7,57.1,50.3,55.1,48.9z"/>
</g>
</svg>
