<?xml version="1.0" encoding="utf-8"?>
<!-- Generator: Adobe Illustrator 24.0.2, SVG Export Plug-In . SVG Version: 6.00 Build 0)  -->
<svg version="1.1" id="Capa_1" xmlns="http://www.w3.org/2000/svg" xmlns:xlink="http://www.w3.org/1999/xlink" x="0px" y="0px"
	 viewBox="0 0 200 200" style="enable-background:new 0 0 200 200;" xml:space="preserve">
<style type="text/css">
	.st0{fill:#FFFFFF;}
</style>
<path class="st0" d="M99.7,12.1c-48.6,0-88.1,39.3-88.1,87.8c0,41.9,29.5,77.1,69,86v-66.3H66.1V98.5h14.6v-7.3
	c0-8.2,0.9-14.8,2.7-18.6c1.8-4.3,5-7.3,9.8-10c4.8-2.7,10.7-3.9,18.2-3.9s14.8,0.7,21.8,3.2l-3.4,18.4c-4.1-1.2-8.4-1.6-12-1.6
	c-3.9,0-6.6,1.2-8,2.7c-1.8,1.8-2.5,5-2.5,10.2v6.8h19.3v21.1h-19.3v67.8c44.9-3.6,80.3-41.5,80.3-87.6
	C187.5,51.3,148.3,12.1,99.7,12.1z"/>
</svg>
