<?xml version="1.0" encoding="utf-8"?>
<!-- Generator: Adobe Illustrator 24.0.2, SVG Export Plug-In . SVG Version: 6.00 Build 0)  -->
<svg version="1.1" id="Capa_1" xmlns="http://www.w3.org/2000/svg" xmlns:xlink="http://www.w3.org/1999/xlink" x="0px" y="0px"
	 viewBox="0 0 200 200" style="enable-background:new 0 0 200 200;" xml:space="preserve">
<style type="text/css">
	.st0{fill:#FFFFFF;}
</style>
<g>
	<path class="st0" d="M129.7,92.4c-1.5,0-1.9,0.3-1.6,2c0.9,4.4,0.6,9.2-0.7,13.7c-4.1,14.3-19,23.2-33.9,20.4
		c-14.5-2.8-24.6-17.1-23-31.8c0.5-4.2,0.4-4.1-3.9-4.3c-3-0.1-3.9,0.6-3.9,3.9c0.2,11.6,0.2,23.2,0.2,34.6c0,4.4,1.2,5.7,5.6,5.7
		c10.4,0,20.7,0,31,0c10.4,0,20.7,0,31.1,0c4.4,0,5.6-1.3,5.7-5.7c0-10.7,0-21.6,0-32.2C136.3,91.8,136.3,91.9,129.7,92.4z"/>
	<path class="st0" d="M99.3,118.1c10.1,0.2,18.5-8.2,18.6-18.4c0.2-9.9-8.4-18.4-18.3-18.4s-18.3,8.2-18.5,18.2
		C80.9,109.5,89.3,117.9,99.3,118.1z"/>
	<path class="st0" d="M126.9,63c-9.2,0-9.2,0-9.2,9.3s0,9.3,9.3,9.3s9.3,0,9.3-9.2C136.3,63,136.3,63,126.9,63z"/>
	<path class="st0" d="M99.6,11.8c-48.5,0-87.9,39.4-87.9,88s39.4,88,87.9,88c48.6,0,88-39.4,88-88C187.5,51.2,148.2,11.8,99.6,11.8z
		 M147.2,134.7c0,8.2-4.5,12.6-12.6,12.6c-23.4,0-46.8,0-70.3,0c-7.8,0-12.2-4.4-12.2-12.5c0-11.7,0-23.4,0-35c0-11.7,0-23.2,0-34.8
		c0-8.4,4.3-12.7,12.6-12.7c23.3,0,46.6,0,69.9,0c8.1,0,12.6,4.3,12.6,12.4C147.2,88.1,147.2,111.3,147.2,134.7z"/>
</g>
</svg>
