<?xml version="1.0" encoding="utf-8"?>
<!-- Generator: Adobe Illustrator 25.4.1, SVG Export Plug-In . SVG Version: 6.00 Build 0)  -->
<svg version="1.1" id="Capa_1" xmlns="http://www.w3.org/2000/svg" xmlns:xlink="http://www.w3.org/1999/xlink" x="0px" y="0px"
	 viewBox="0 0 200 200" style="enable-background:new 0 0 200 200;" xml:space="preserve">
<style type="text/css">
	.st0{fill:#FFFFFF;}
</style>
<path class="st0" d="M100,12c-48.6,0-88,39.4-88,88s39.4,88,88,88c48.6,0,88-39.4,88-88S148.6,12,100,12z M74.5,147.5H55V84.7h19.5
	V147.5z M64.7,76.1c-6.3,0-11.3-5.1-11.3-11.3c0-6.2,5.1-11.3,11.3-11.3C71,53.5,76,58.6,76,64.8C76,71.1,71,76.1,64.7,76.1z
	 M147.6,147.5h-19.5V117c0-7.3-0.1-16.6-10.1-16.6c-10.2,0-11.7,7.9-11.7,16.1v31H86.7V84.7h18.7v8.6h0.3c2.6-4.9,9-10.1,18.5-10.1
	c19.8,0,23.4,13,23.4,29.9V147.5z"/>
</svg>
