<?xml version="1.0" encoding="utf-8"?>
<!-- Generator: Adobe Illustrator 24.0.2, SVG Export Plug-In . SVG Version: 6.00 Build 0)  -->
<svg version="1.1" id="Capa_1" xmlns="http://www.w3.org/2000/svg" xmlns:xlink="http://www.w3.org/1999/xlink" x="0px" y="0px"
	 viewBox="0 0 200 200" style="enable-background:new 0 0 200 200;" xml:space="preserve">
<style type="text/css">
	.st0{fill:#FFFFFF;}
</style>
<path class="st0" d="M99.6,11.8c-48.6,0-88,39.4-88,88c0,48.5,39.4,87.9,88,87.9c48.5,0,87.9-39.4,87.9-87.9
	C187.5,51.1,148.1,11.8,99.6,11.8z M157.9,66.3c-2.7,3.7-5.9,7-9.6,9.8c-0.7,0.6-0.9,1-0.9,1.9c0.3,16.9-5.1,32-15.9,45.1
	c-10.2,12-23.2,19.1-38.6,21.7c-16.4,2.5-31.8-0.2-46-9c-0.2-0.1-0.4-0.2-0.5-0.2c8.4,0.5,16.5-0.7,24.1-4.2
	c3.4-1.5,6.6-3.3,9.7-5.8c-3.6-0.1-7-0.9-10-2.5c-5.2-2.6-8.8-6.8-11-12.3c-0.5-1.2-0.5-1.2,0.9-1.2c3.7,0.3,6.4,0.2,8.5-0.6
	c-2-0.7-3.9-1.1-5.5-2.1c-7.7-4.2-11.8-10.9-12.5-19.7c-0.1-1,0.2-1.1,1.1-0.7c2.7,1.5,5.7,2.2,9.1,2.5c-1.5-1.4-2.7-2.4-3.9-3.6
	c-6.4-6.9-7.9-17.8-3.7-26.2c0.6-1.1,0.8-1.1,1.6-0.2C65.6,71.4,79,79,95.1,81.5c1.6,0.3,3.4,0.4,5.1,0.7c1.1,0.2,1.3-0.3,1.1-1.2
	c-1.7-9.7,2.9-19.3,11.5-24.2c8.8-5.1,20.2-3.5,27.2,3.4c0.8,0.7,1.6,0.9,2.5,0.6c4.3-0.9,8.4-2.6,12.2-4.8c0.3-0.1,0.6-0.3,1-0.6
	c-1.6,5.5-4.9,9.5-9.8,12.7c4.5-0.4,8.5-1.7,12.5-3.3C158.5,65.5,158.1,65.9,157.9,66.3z"/>
</svg>
