<?xml version="1.0" encoding="utf-8"?>
<!-- Generator: Adobe Illustrator 25.4.1, SVG Export Plug-In . SVG Version: 6.00 Build 0)  -->
<svg version="1.1" id="Capa_1" xmlns="http://www.w3.org/2000/svg" xmlns:xlink="http://www.w3.org/1999/xlink" x="0px" y="0px"
	 viewBox="0 0 200 200" style="enable-background:new 0 0 200 200;" xml:space="preserve">
<style type="text/css">
	.st0{fill:#506AAD;}
</style>
<g>
	<path class="st0" d="M109,56c-18.5-4-34,2.3-45.3,17.4c-10.8,14.6-11.3,34.1-1.6,49.8c0.8,1,0.9,2,0.6,3.2
		c-1.4,4.6-2.6,9.1-3.9,13.5c-0.2,1-0.1,1.2,0.9,0.9c4.8-1.2,9.5-2.5,14.3-3.7c1-0.3,1.7-0.2,2.7,0.5c7.1,4.1,14.7,6.2,24.1,6.2
		c1.2,0.2,3.6,0,6.2-0.5c25-4.1,41.7-28.7,35.8-53.5C138.8,71.6,127.1,59.8,109,56z M126.7,114.9c-0.3,5.6-4.6,8.4-9.5,9.8
		c-1.3,0.3-2.4,0.3-3.6,0.1c-1.9,0.2-3.8-0.2-5.6-0.7c-12.2-3.6-21.5-11.1-28.9-21.3c-2.8-3.8-5.4-7.8-6.2-12.6
		c-1.1-5.5,0.6-10.5,4.8-14.3c1.4-1.3,5.5-1.9,7.1-1.1c0.5,0.4,0.8,0.9,1.2,1.4c1.5,3.8,3.1,7.3,4.7,10.9c0.2,0.7,0.2,1.5-0.2,2.3
		c-0.8,1.7-2.1,3-3.3,4.4c-1,0.9-1,1.9-0.3,3c4.4,7.3,10.3,12.5,18.3,15.7c1.2,0.5,2,0.3,2.7-0.6c1.4-1.6,2.7-3.3,4-5
		c0.8-1.1,1.8-1.2,3-0.7c2.6,1.2,5.2,2.4,7.7,3.6c0.7,0.4,1.2,0.6,1.8,0.8C127,111.9,127,112.1,126.7,114.9z"/>
	<path class="st0" d="M99.6,11.8c-48.6,0-87.9,39.4-87.9,88s39.4,88,87.9,88c48.6,0,88-39.4,88-88C187.5,51.2,148.1,11.8,99.6,11.8z
		 M110.2,151.8c-12.3,2.3-24,0.7-35.1-5c-0.6-0.3-1.2-0.3-1.9-0.1c-8.6,2.2-17.2,4.3-25.9,6.7c-1.4,0.4-1.4,0.4-1-1.1
		c2.2-8.3,4.5-16.7,7-24.8c0.1-1,0.1-1.8-0.5-2.7c-17.3-31.6,1-70.8,36.5-77.9c3.3-0.7,6.9-0.9,10.2-1.1c25.3,0.4,46.3,17,52.2,41.3
		C158.7,116.2,139.5,146.1,110.2,151.8z"/>
</g>
</svg>
