<?xml version="1.0" encoding="utf-8"?>
<!-- Generator: Adobe Illustrator 25.4.1, SVG Export Plug-In . SVG Version: 6.00 Build 0)  -->
<svg version="1.1" id="Capa_1" xmlns="http://www.w3.org/2000/svg" xmlns:xlink="http://www.w3.org/1999/xlink" x="0px" y="0px"
	 viewBox="0 0 200 200" style="enable-background:new 0 0 200 200;" xml:space="preserve">
<style type="text/css">
	.st0{fill:#506AAD;}
</style>
<g>
	<path class="st0" d="M91.9,84.8c-1.1-0.6-2.1,0.2-2.1,1.4V114c0,1.2,1,2,2,1.4l24.7-13.5c1.1-0.6,1.3-2.2,0.2-2.8L91.9,84.8z"/>
	<path class="st0" d="M100,12c-48.6,0-88,39.4-88,88s39.4,88,88,88s88-39.4,88-88S148.6,12,100,12z M155.7,114.9
		c0,13.2-10.7,23.9-23.9,23.9H69.9c-13.2,0-23.9-10.7-23.9-23.9v-29C46,72.7,56.7,62,69.9,62h61.9c13.2,0,23.9,10.7,23.9,23.9V114.9
		z"/>
</g>
</svg>
